<?xml version="1.0" encoding="utf-8" ?>
<svg baseProfile="full" height="200mm" version="1.1" viewBox="0,0,200,200" width="200mm" xmlns="http://www.w3.org/2000/svg" xmlns:ev="http://www.w3.org/2001/xml-events" xmlns:xlink="http://www.w3.org/1999/xlink"><defs /><rect fill="#1a1a1a" height="200" width="200" x="0" y="0" /><text alignment-baseline="middle" fill="#e1ed5e" style="dominant-baseline: central; font-size:9.0px; font-family:Arial;" text-anchor="middle" x="100.0" y="100.0">2019</text><line stroke="#e1ed5e" stroke-width="0.3" x1="100.0" x2="100.0" y1="15.0" y2="10.0" /><path d="M 100.0 14.0 a86.0,86.0 0 0,1 42.46469731375804,11.215312516191453" fill="none" id="id49" stroke="none" /><text fill="#e1ed5e" style="font-size:6.75px; font-family:Arial;" text-anchor="middle"><textPath startOffset="22.20632615414155" xlink:href="#id49">January</textPath></text><line stroke="#e1ed5e" stroke-width="0.3" x1="143.23703022742887" x2="145.7803849466894" y1="26.81831364943548" y2="22.513508569990506" /><path d="M 143.74570117128098 25.957352633546492 a86.0,86.0 0 0,1 28.547481713284135,27.462654790039103" fill="none" id="id50" stroke="none" /><text fill="#e1ed5e" style="font-size:6.75px; font-family:Arial;" text-anchor="middle"><textPath startOffset="19.985693538727396" xlink:href="#id50">February</textPath></text><line stroke="#e1ed5e" stroke-width="0.3" x1="172.23445277983987" x2="176.4835382374775" y1="55.19839476539836" y2="52.563006222186495" /><path d="M 173.08426987136738 54.67131705675599 a86.0,86.0 0 0,1 12.851231095245387,41.99856678651699" fill="none" id="id51" stroke="none" /><text fill="#e1ed5e" style="font-size:6.75px; font-family:Arial;" text-anchor="middle"><textPath startOffset="22.20632615414155" xlink:href="#id51">March</textPath></text><line stroke="#e1ed5e" stroke-width="0.3" x1="184.98032266829074" x2="189.97916517819016" y1="98.17113171792111" y2="98.06355123074" /><path d="M 185.9800911702706 98.14961562048488 a86.0,86.0 0 0,1 -9.607161424134198,41.387399972396054" fill="none" id="id52" stroke="none" /><text fill="#e1ed5e" style="font-size:6.75px; font-family:Arial;" text-anchor="middle"><textPath startOffset="21.466115282336823" xlink:href="#id52">April</textPath></text><line stroke="#e1ed5e" stroke-width="0.3" x1="174.80103733775053" x2="179.2010983576182" y1="140.37084112569926" y2="142.7455964860345" /><path d="M 175.68104954172406 140.8457921977663 a86.0,86.0 0 0,1 -30.038265399797805,32.042727171017184" fill="none" id="id53" stroke="none" /><text fill="#e1ed5e" style="font-size:6.75px; font-family:Arial;" text-anchor="middle"><textPath startOffset="22.206326154141568" xlink:href="#id53">May</textPath></text><path d="M 117.94076556474637 110.91462005526583 l 16.625880879787598 10.114683915360319 a40.46090300413975,40.46090300413975 0 0,0 -0.36710632063111287,0.5918922780545504 l -16.449309919488524 -10.39937252478014" fill="#ffd714" stroke="none" /><path d="M 117.75023020441432 111.22182372390056 l 42.82887609638346 27.076724769849328 a71.67012583309359,71.67012583309359 0 0,0 -0.6682220037749788,1.037095389123268 l -42.35644922923143 -27.80994175889405" fill="#3dffab" stroke="none" /><path d="M 117.55443506779139 111.5257021239791 l 22.371541571802354 14.688466089341963 a47.76260279488207,47.76260279488207 0 0,0 -0.4571492780605958,0.6833761438720295 l -22.115389188331037 -15.0713791474198" fill="#caff1d" stroke="none" /><path d="M 117.35343817320211 111.8261652097733 l 12.967300876827917 8.837063927252165 a36.6921824767788,36.6921824767788 0 0,0 -0.36017586714307354,0.5188601998051329 l -12.813264102522707 -9.05896538924432" fill="#ffa30f" stroke="none" /><path d="M 116.93607887273984 112.41649034213515 l 19.468400414109293 14.273032591250681 a45.13996839341334,45.13996839341334 0 0,0 -0.4648099803245372,0.6226889268061163 l -19.219829167089664 -14.606034397566113" fill="#ebff1a" stroke="none" /><path d="M 116.0416608686014 113.55231037782055 l 48.12498260580419 40.656931133461654 a84.0,84.0 0 0,0 -0.942629961716885,1.096491603353888 l -47.41801013451653 -41.47929983597707" fill="#4dd2ff" stroke="none" /><path d="M 115.80600337817218 113.82643327865902 l 13.92223755216224 12.178593411566933 a39.49721157210183,39.49721157210183 0 0,0 -0.4520383459486628,0.5078698736989263 l -13.71054035656524 -12.416437455006726" fill="#ffca12" stroke="none" /><path d="M 115.56566222782051 114.09645910891815 l 16.811336450140814 15.224557321571602 a43.68056831028827,43.68056831028827 0 0,0 -0.5095101003996833,0.5529725845168912 l -16.54677994174541 -15.511681160889827" fill="#fdff18" stroke="none" /><path d="M 115.07121518719521 114.62390073753431 l 25.311923414094927 24.560664212285236 a56.269245717333334,56.269245717333334 0 0,0 -0.6804810700462122,0.6893237313010369 l -24.88540171899318 -24.99272843756694" fill="#67ff28" stroke="none" /><path d="M 114.81725581225074 114.88116024355365 l 10.770747958899683 10.817200455349898 a36.265020055190355,36.265020055190355 0 0,0 -0.44614617420720026,0.43664793278408304 l -10.58295183231669 -11.000998491056555" fill="#ff9d0e" stroke="none" /><path d="M 114.0293411484842 115.62618273729858 l 14.793769200393646 16.477619187679906 a43.14424397555068,43.14424397555068 0 0,0 -0.5568846313160426,0.4913859392705746 l -14.507942216171015 -16.729828268722766" fill="#fffa17" stroke="none" /><path d="M 113.48314897796784 116.09983520530334 l 28.85009463006578 34.449057112730344 a65.9340126866042,65.9340126866042 0 0,0 -0.8763882136068827,0.7212078355926529 l -28.252836287914207 -34.94056006718018" fill="#35ff67" stroke="none" /><path d="M 113.20401910651253 116.32954008644616 l 13.560093189075602 16.769900400836374 a42.56630906646723,42.56630906646723 0 0,0 -0.5737178497114778,0.4557961578583145 l -13.269417846646773 -17.000830472699814" fill="#fff216" stroke="none" /><path d="M 112.63410532772338 116.77436683061366 l 16.08582244457071 21.357229456149398 a47.7373322109905,47.7373322109905 0 0,0 -0.6606279148874203,0.48871673805083443 l -15.715809559264724 -21.63095614294" fill="#caff1d" stroke="none" /><path d="M 112.34349029814194 116.9893568818739 l 13.720566535617941 18.884739718246333 a44.342822029142695,44.342822029142695 0 0,0 -0.6213752728208175,0.44333475862090804 l -13.39346393494824 -19.11811873871146" fill="#f5ff19" stroke="none" /><path d="M 112.04921762599082 117.19931262002967 l 19.192680909320874 27.39604588631874 a54.449997469241936,54.449997469241936 0 0,0 -0.7722646132626256,0.5311706428867393 l -18.718259411435366 -27.722357318570573" fill="#7bff26" stroke="none" /><path d="M 111.45004920935366 117.60387380957326 l 17.276506697331783 26.56175866227947 a52.68603330958497,52.68603330958497 0 0,0 -0.7644949108281966,0.4879368229153555 l -16.816729984456657 -26.855209914018634" fill="#8fff24" stroke="none" /><line stroke="#e1ed5e" stroke-width="0.3" x1="143.8653032363475" x2="146.44561519142675" y1="172.8068346515853" y2="177.08958963109032" /><path d="M 144.38136562736335 173.6633856474863 a86.0,86.0 0 0,1 -40.68145358897372,12.25698825130547" fill="none" id="id54" stroke="none" /><text fill="#e1ed5e" style="font-size:6.75px; font-family:Arial;" text-anchor="middle"><textPath startOffset="21.466115282336833" xlink:href="#id54">June</textPath></text><path d="M 110.8373102113329 117.98757091392108 l 2.3634465063515457 3.9228056413666788 a25.579768933944546,25.579768933944546 0 0,0 -0.37910694971017206,0.2239830681890341 l -2.2955716856129915 -3.9629072818494624" fill="#ff0000" stroke="none" /><path d="M 110.21172684928248 118.3499491758327 l 6.317225673916688 11.351730393844374 a33.99111708629101,33.99111708629101 0 0,0 -0.5137145315376463,0.28011812232908817 l -6.120888330510393 -11.458789167933231" fill="#ff7d0b" stroke="none" /><path d="M 108.2653958097858 119.30500536409082 l 10.548354408755813 24.63717928695774 a47.80034298195487,47.80034298195487 0 0,0 -0.7591799347758184,0.31733727430760783 l -10.122703014482534 -24.81510160428532" fill="#c9ff1d" stroke="none" /><path d="M 107.93186726928326 119.44442032107085 l 6.012468108585744 14.739146924850035 a36.91829842756684,36.91829842756684 0 0,0 -0.5904799214388767,0.23496414685727487 l -5.757867111105002 -14.840457916113378" fill="#ffa60f" stroke="none" /><path d="M 106.91757812671514 119.82793768551818 l 6.8842930639132005 19.732532308230635 a41.898955052471145,41.898955052471145 0 0,0 -0.6830133558458843,0.23171521389922833 l -6.54360997513009 -19.848110509027986" fill="#ffea16" stroke="none" /><path d="M 106.2309692047433 120.05430185196036 l 6.497176804264222 20.91108791214731 a42.89718941086783,42.89718941086783 0 0,0 -0.707037656251345,0.21302464591019662 l -6.1362641735726315 -21.01982792716323" fill="#fff717" stroke="none" /><path d="M 105.88484417918355 120.15858648285463 l 6.145313917928114 21.050827907567644 a42.92948332140796,42.92948332140796 0 0,0 -0.711134724613857,0.20097377650864467 l -5.782048025209651 -21.153490477414806" fill="#fff717" stroke="none" /><path d="M 104.83641907484287 120.43548508189849 l 5.4050106774994715 22.83797441005072 a44.46885629036947,44.46885629036947 0 0,0 -0.7463988486618913,0.16987794788942737 l -5.011091679444718 -22.92762909151783" fill="#f3ff19" stroke="none" /><path d="M 104.13013068566511 120.58985236759428 l 4.642741234297513 23.145358796251767 a44.60641184034277,44.60641184034277 0 0,0 -0.7541295619558983,0.14453072539233267 l -4.24364405776991 -23.221846719992566" fill="#f1ff19" stroke="none" /><path d="M 103.7750983002368 120.6578951692458 l 4.082313882855074 22.33902418771103 a43.708969335865724,43.708969335865724 0 0,0 -0.7412854468983432,0.12888197679326469 l -3.6971794644846803 -22.4059847430253" fill="#fdff18" stroke="none" /><path d="M 103.41894727170886 120.7198165907248 l 3.807018334132869 23.07164029509396 a44.38362620515961,44.38362620515961 0 0,0 -0.7548685487375343,0.11789494265700741 l -3.4093139217868176 -23.133753545098074" fill="#f4ff19" stroke="none" /><path d="M 103.06178313531738 120.77559828337769 l 3.2364076838987628 21.96050567603239 a43.197705832888445,43.197705832888445 0 0,0 -0.7365649230990112,0.10208118674665835 l -2.857914169612921 -22.012961428271648" fill="#fffb17" stroke="none" /><path d="M 101.98527174616119 120.90594882070398 l 2.061091154301153 21.704366805171393 a42.802009888076014,42.802009888076014 0 0,0 -0.7340660511082522,0.0633383076784764 l -1.6871807854513594 -21.736629365128532" fill="#fff517" stroke="none" /><path d="M 101.26447882468166 120.96189622390904 l 0.6742413757481897 11.177235610772158 a32.19755318502592,32.19755318502592 0 0,0 -0.5535095651279014,0.028610122105565024 l -0.48174374220680866 -11.187185539639925" fill="#ff6309" stroke="none" /><line stroke="#e1ed5e" stroke-width="0.3" x1="102.19456741930631" x2="102.32365962044197" y1="184.97166512339345" y2="189.96999836594603" /><path d="M 102.22038585953345 185.97133177190398 a86.0,86.0 0 0,1 -42.740103519485714,-10.115201625700543" fill="none" id="id55" stroke="none" /><text fill="#e1ed5e" style="font-size:6.75px; font-family:Arial;" text-anchor="middle"><textPath startOffset="22.20632615414155" xlink:href="#id55">July</textPath></text><path d="M 100.54218724476979 120.99299961872073 l 0.5593485622999731 21.65747030821611 a42.66469226565218,42.66469226565218 0 0,0 -0.7343209334824388,0.012642000809556277 l -0.18646793892486638 -21.66388978630482" fill="#fff417" stroke="none" /><path d="M 99.81925306533755 120.99922214144158 l -0.11264558207428195 13.087190693703551 a34.08767547276909,34.08767547276909 0 0,0 -0.5866980949388456,-0.010100539768092269 l 0.3379033669057955 -13.083312676656298" fill="#ff7f0b" stroke="none" /><path d="M 99.45781275523022 120.99299961872073 l -0.5625600203208823 21.78181505748704 a42.78907847925269,42.78907847925269 0 0,0 -0.7361344392928815,-0.02535395850852541 l 0.9374148112884068 -21.76890430055242" fill="#fff517" stroke="none" /><path d="M 98.01472825383883 120.90594882070398 l -1.0809855855112933 11.383343046268838 a32.43455415593981,32.43455415593981 0 0,0 -0.555352781814597,-0.05756458653560509 l 1.2767709639314837 -11.363049091277473" fill="#ff6709" stroke="none" /><path d="M 97.65516085044442 120.86867818915974 l -1.2829089346887277 11.41767600949985 a32.48952482884356,32.48952482884356 0 0,0 -0.5552190237696646,-0.0672292915905741 l 1.4792553815097818 -11.393901189183927" fill="#ff6809" stroke="none" /><path d="M 97.2962882734958 120.8252237178851 l -1.127974386724337 8.688174379430135 a29.761090129914905,29.761090129914905 0 0,0 -0.5074569271730632,-0.07032890614813213 l 1.2773599050842315 -8.667470907789397" fill="#ff4006" stroke="none" /><path d="M 96.58105272829116 120.7198165907248 l -3.8586931780601086 23.38480490496872 a44.70102557877732,44.70102557877732 0 0,0 -0.758110296958845,-0.13180719263841686 l 4.260652446491004 -23.314919133809298" fill="#f0ff19" stroke="none" /><path d="M 95.51606077576429 120.51570834832081 l -2.729667829490237 12.489256940622557 a33.78407702527807,33.78407702527807 0 0,0 -0.5670574487033351,-0.12906042914432547 l 2.9442454275864347 -12.440419777900544" fill="#ff7a0b" stroke="none" /><path d="M 95.16358092515715 120.4354850818985 l -4.136519997365006 17.47817783963936 a38.96099936759258,38.96099936759258 0 0,0 -0.6512919452912013,-0.1600717142982744 l 4.436765227399418 -17.404384867027055" fill="#ffc212" stroke="none" /><path d="M 93.76903079525671 120.05430185196036 l -4.133242579992708 13.302793129430036 a34.93011124397346,34.93011124397346 0 0,0 -0.5726519864237619,-0.18334508229918903 l 4.3616159115074105 -13.22967520047114" fill="#ff8b0c" stroke="none" /><path d="M 93.42475214034765 119.94407469862007 l -6.629702838585759 20.109247813115722 a42.17391809130402,42.17391809130402 0 0,0 -0.6874956496799842,-0.23323585132986954 l 6.974868221202969 -19.99214897488773" fill="#ffed16" stroke="none" /><path d="M 92.40401165467489 119.57807347666478 l -8.993744634997276 23.180682393055978 a45.86426107422615,45.86426107422615 0 0,0 -0.7335637456069701,-0.29190015340734915 l 9.391429456646103 -23.022435395242564" fill="#e1ff1b" stroke="none" /><path d="M 91.40352486487194 119.15986991738527 l -13.350669449290043 29.756043719958555 a53.613839280408115,53.613839280408115 0 0,0 -0.8387553368283778,-0.38503143678649665 l 13.860892781885841 -29.52182521283798" fill="#85ff25" stroke="none" /><path d="M 91.07499286063937 119.00905698771935 l -12.585496363873707 26.805403498730247 a50.61290893267357,50.61290893267357 0 0,0 -0.7854336122293193,-0.37705586459208945 l 13.045042644103269 -26.584793357638596" fill="#a8ff21" stroke="none" /><path d="M 90.42595943632237 118.69057910512821 l -9.606942871899358 18.754811462456274 a42.07216895187155,42.07216895187155 0 0,0 -0.6417189745584175,-0.33571703797719815 l 9.92835274898427 -18.58666500553436" fill="#ffec16" stroke="none" /><path d="M 90.10565033884886 118.52300852407294 l -12.134020723981612 22.715850662128304 a46.75353044213803,46.75353044213803 0 0,0 -0.7065954298542706,-0.3852921669641121 l 12.523238965704522 -22.503617843404427" fill="#d6ff1c" stroke="none" /><line stroke="#e1ed5e" stroke-width="0.3" x1="58.666819895761336" x2="56.23545636021788" y1="174.27360380694188" y2="178.64263932499728" /><path d="M 58.180547188652646 175.14741091055294 a86.0,86.0 0 0,1 -31.652253787137756,-30.449443065178592" fill="none" id="id56" stroke="none" /><text fill="#e1ed5e" style="font-size:6.75px; font-family:Arial;" text-anchor="middle"><textPath startOffset="22.20632615414155" xlink:href="#id56">August</textPath></text><path d="M 89.7882731507175 118.34994917583269 l -8.29967620771653 14.91409228187171 a38.0679457974626,38.0679457974626 0 0,0 -0.5698431286766198,-0.323571800454694 l 8.555168103314356 -14.769017315622383" fill="#ffb610" stroke="none" /><path d="M 89.1626897886671 117.98757091392108 l -9.651658552526351 16.019647796827986 a39.702503264241685,39.702503264241685 0 0,0 -0.5823427057210404,-0.3577224530180234 l 9.925980458179701 -15.851136876981586" fill="#ffcc13" stroke="none" /><path d="M 88.54995079064634 117.60387380957326 l -6.823616842152562 10.49096712318087 a33.514876666918056,33.514876666918056 0 0,0 -0.48089906230248136,-0.31871367586971117 l 7.003190603195006 -10.37195542621984" fill="#ff770a" stroke="none" /><path d="M 88.24862548938628 117.40417183066458 l -7.769938587903606 11.5075343888877 a34.885074482019405,34.885074482019405 0 0,0 -0.49477520304224626,-0.34031089625362615 l 7.9668706755687415 -11.372082703268973" fill="#ff8a0c" stroke="none" /><path d="M 87.65650970185807 116.9893568818739 l -10.033260030256407 13.809597709030983 a38.069601510287654,38.069601510287654 0 0,0 -0.526838017574558,-0.38974217048349513 l 10.26948301824953 -13.634845589807721" fill="#ffb610" stroke="none" /><path d="M 87.07902340077011 116.55440617244103 l -12.884993943597 16.50830505214759 a41.941518679916534,41.941518679916534 0 0,0 -0.5652967907812065,-0.44910595934445385 l 13.167248227095564 -16.28406517879801" fill="#ffea16" stroke="none" /><path d="M 86.24171649860922 115.8653595955263 l -11.783337368846285 13.587951183972269 a38.98553465777603,38.98553465777603 0 0,0 -0.5032060616674023,-0.4440208426559247 l 12.015485783420274 -13.383107199544057" fill="#ffc312" stroke="none" /><path d="M 85.70375840098266 115.38237550388516 l -8.99486579127454 9.678236216849227 a34.21271610503204,34.21271610503204 0 0,0 -0.42792640614057614,-0.4046311268254584 l 9.160128031805932 -9.521970453277836" fill="#ff800b" stroke="none" /><path d="M 84.9287848128048 114.62390073753433 l -19.779312232687122 19.19226121814438 a48.560190185548706,48.560190185548706 0 0,0 -0.5769261578612499,-0.6049047699971364 l 20.106744941927328 -18.848949331564743" fill="#c0ff1e" stroke="none" /><path d="M 84.67929136418377 114.36230785411682 l -23.503149588696004 22.032888814625462 a53.21562090207589,53.21562090207589 0 0,0 -0.6207313090810026,-0.6736812400849638 l 23.878927305772738 -21.625056319739155" fill="#89ff24" stroke="none" /><path d="M 83.72743513129214 113.27417163493432 l -11.78665241926884 9.61483628899568 a36.210859677113724,36.210859677113724 0 0,0 -0.3898393696233483,-0.48638455414843385 l 11.95040970094705 -9.410523901268986" fill="#ff9d0e" stroke="none" /><path d="M 83.28015986056508 112.70617746262583 l -17.387423346092614 13.2135047231811 a42.838479747587186,42.838479747587186 0 0,0 -0.44111136177745264,-0.590940754489398 l 17.61229597456515 -12.912251089182394" fill="#fff617" stroke="none" /><path d="M 83.06392112726016 112.41649034213515 l -22.211367930811086 16.28400750084075 a48.541128619671724,48.541128619671724 0 0,0 -0.4882317745414002,-0.6781112328802696 l 22.488379497728094 -15.899262662509345" fill="#c0ff1e" stroke="none" /><path d="M 82.24976979558568 111.22182372390057 l -21.145470427845904 13.368319112910825 a46.016851830706486,46.016851830706486 0 0,0 -0.4175160688052354,-0.6731688429244805 l 21.372451136319093 -13.00235393862108" fill="#e0ff1b" stroke="none" /><line stroke="#e1ed5e" stroke-width="0.3" x1="26.63291911575756" x2="22.317208475507996" y1="142.92168965132927" y2="145.44649492493687" /><path d="M 25.769776987707644 143.4266507060508 a86.0,86.0 0 0,1 -11.730757126820373,-40.83630448921669" fill="none" id="id57" stroke="none" /><text fill="#e1ed5e" style="font-size:6.75px; font-family:Arial;" text-anchor="middle"><textPath startOffset="21.46611528233685" xlink:href="#id57">September</textPath></text><path d="M 81.87401531095188 110.60418214915194 l -18.843075208183638 11.02369913610699 a42.83079077689745,42.83079077689745 0 0,0 -0.3668110583066752,-0.6395659987538147 l 19.03003826264269 -10.697713291494868" fill="#fff617" stroke="none" /><path d="M 81.35079622478065 109.6543875284942 l -11.521553206414838 5.964519500435637 a33.973884582472785,33.973884582472785 0 0,0 -0.2643836862378832,-0.5216540950341635 l 11.62251556243899 -5.765311193698789" fill="#ff7d0b" stroke="none" /><path d="M 80.58989483394504 108.01547362559985 l -11.809495694558679 4.876774260703769 a33.7768194692444,33.7768194692444 0 0,0 -0.2172933337616707,-0.5393042342998613 l 11.891691642577738 -4.672770658561102" fill="#ff7a0b" stroke="none" /><path d="M 80.45479744820244 107.68017299344265 l -18.8286967806169 7.398626242577109 a41.23016294382633,41.23016294382633 0 0,0 -0.25387123437754616,-0.662777683117362 l 18.953262294587958 -7.073424992626589" fill="#ffe115" stroke="none" /><path d="M 80.32549172779594 107.34259656027581 l -23.058951373948382 8.605682779941374 a45.61245649209147,45.61245649209147 0 0,0 -0.2681919891775259,-0.73794917034051 l 23.203667624131132 -8.207485812594747" fill="#e5ff1a" stroke="none" /><path d="M 79.76711848015287 105.62410040840567 l -12.811849188636153 3.561288399952283 a34.29760334421175,34.29760334421175 0 0,0 -0.1532154355517752,-0.5701716332292038 l 12.871252700529704 -3.34022583354754" fill="#ff820b" stroke="none" /><path d="M 79.67330655649465 105.27499134158121 l -36.65326931233191 9.511909981845653 a58.86738151476897,58.86738151476897 0 0,0 -0.24609000257490166,-0.9830072316572415 l 36.81157062920187 -8.879574910791021" fill="#4bff2c" stroke="none" /><path d="M 79.50377843672027 104.57218783832718 l -15.028812644097885 3.3525474041004952 a36.39820715499494,36.39820715499494 0 0,0 -0.13114787300426814,-0.6126792013008772 l 15.084294555826594 -3.093354383383454" fill="#ff9f0e" stroke="none" /><path d="M 79.4281124754447 104.21870165774334 l -14.495309551003219 2.972570521753428 a35.7969650430824,35.7969650430824 0 0,0 -0.11859034558642703,-0.6046896172219886 l 14.544329829565314 -2.722617177463485" fill="#ff970d" stroke="none" /><path d="M 79.35854240842038 103.8639653848113 l -21.99304331911805 4.116974671710875 a43.37506279061831,43.37506279061831 0 0,0 -0.1310620022774195,-0.735065311092883 l 22.060651763734658 -3.737790609884778" fill="#fffd17" stroke="none" /><path d="M 79.18660465613746 102.79330883721812 l -30.400116784392996 4.079916489519249 a51.672672186592806,51.672672186592806 0 0,0 -0.11072344102757355,-0.882574766755127 l 30.465841734667418 -3.5560239684767136" fill="#9bff22" stroke="none" /><path d="M 79.1416061653843 102.43462659150553 l -9.323579351854686 1.0882637655621559 a30.386876474832647,30.386876474832647 0 0,0 -0.056168981396420625,-0.5200550081660781 l 9.340930634752159 -0.9276124355112957" fill="#ff4906" stroke="none" /><path d="M 79.04373962182676 101.35467743843564 l -26.204227624405412 1.693922260642783 a47.258920732138876,47.258920732138876 0 0,0 -0.04548929719587676,-0.8122419594138328 l 26.22950327248882 -1.2426085848935127" fill="#d0ff1d" stroke="none" /><path d="M 79.0095281055655 100.63252640178507 l -28.225115898473486 0.8505349993566278 a49.23792799175236,49.23792799175236 0 0,0 -0.018236643687617456,-0.847385172648171 l 28.23557460484611 -0.3645600109183279" fill="#b8ff1f" stroke="none" /><line stroke="#e1ed5e" stroke-width="0.3" x1="15.007084014347285" x2="10.007500721073583" y1="101.09737516637583" y2="101.16192664675087" /><path d="M 14.007167355692545 101.11028546245083 a86.0,86.0 0 0,1 10.666146001902534,-42.60595125391555" fill="none" id="id58" stroke="none" /><text fill="#e1ed5e" style="font-size:6.75px; font-family:Arial;" text-anchor="middle"><textPath startOffset="22.20632615414155" xlink:href="#id58">October</textPath></text><path d="M 79.00175016825051 100.2711162175752 l -19.79001209447042 0.2555162105323586 a40.79166155816965,40.79166155816965 0 0,0 -0.0030218904024628696,-0.702180905790563 l 19.791478282162387 0.08517417346187975" fill="#ffdb14" stroke="none" /><path d="M 79.00019446554 99.90962569577889 l -42.30734951783806 -0.18207298490646154 a63.30774129868369,63.30774129868369 0 0,0 0.014069370382593429,-1.0896882411219906 l 42.297947140337754 0.910297484088924" fill="#32ff46" stroke="none" /><path d="M 79.03285615573316 98.82574320788736 l -22.33011094620356 -1.2505892381893617 a43.365102913074985,43.365102913074985 0 0,0 0.04815469385550995,-0.7449318001727198 l 22.30527566134364 1.6347801026150932" fill="#fffd17" stroke="none" /><path d="M 79.12142395522702 97.74499172005258 l -23.80426257348829 -2.570999530147427 a44.94270150278773,44.94270150278773 0 0,0 0.08969203595461465,-0.7684265900558371 l 23.756480184530087 2.9803698585281255" fill="#edff1a" stroke="none" /><path d="M 79.62865764111835 94.90015583598534 l -34.7202332067283 -8.692003480829124 a56.79169622189404,56.79169622189404 0 0,0 0.2455663969645327,-0.9462675003420863 l 34.56547047789346 9.288367406720074" fill="#61ff29" stroke="none" /><path d="M 79.71946130924805 94.55025226153421 l -11.258210073902639 -3.0252847730026833 a32.65760018296582,32.65760018296582 0 0,0 0.15055655901264423,-0.5416320476757366 l 11.204466744323634 3.2186281240973624" fill="#ff6a09" stroke="none" /><path d="M 79.81627453868168 94.20196356495316 l -34.649147218767446 -9.953416102628358 a57.05043543564878,57.05043543564878 0 0,0 0.2792594442854286,-0.9415240188242746 l 34.472681877370306 10.548369508199173" fill="#5eff29" stroke="none" /><path d="M 80.2630227832202 92.82701384747504 l -8.177462489516053 -2.971925465375852 a29.70076052648224,29.70076052648224 0 0,0 0.17876380231234948,-0.4789981144262748 l 8.125094098702075 3.1122467168314683" fill="#ff3f05" stroke="none" /><path d="M 80.38941819471856 92.48833698450439 l -14.566888481290684 -5.579720099191112 a36.598958824603535,36.598958824603535 0 0,0 0.23041040115366612,-0.5863693388722305 l 14.468684530255327 5.829638442959106" fill="#ffa20f" stroke="none" /><path d="M 80.52162464483688 92.15188598940014 l -11.183725310157735 -4.5060817289406865 a33.057382981433236,33.057382981433236 0 0,0 0.21720009236833368,-0.5259672518267037 l 11.104503530903202 4.697923551220701" fill="#ff700a" stroke="none" /><path d="M 80.65960295795068 91.81776055985345 l -20.525852533493524 -8.683763822275008 a43.28717964094548,43.28717964094548 0 0,0 0.2962271361482208,-0.6837330721588172 l 20.37333468750262 9.035796039020425" fill="#fffc17" stroke="none" /><path d="M 80.803312248108 91.48605970444005 l -14.398339262972398 -6.385820430302177 a36.75090080280227,36.75090080280227 0 0,0 0.2614523537832552,-0.5760756047386083 l 14.28628459222579 6.632718043882856" fill="#ffa40f" stroke="none" /><path d="M 80.95270993114464 91.15688171328213 l -30.937234031154286 -14.363283123866015 a55.10888962711547,55.10888962711547 0 0,0 0.4068657991982641,-0.8569631368268266 l 30.68541003811427 14.893688676333374" fill="#74ff27" stroke="none" /><path d="M 81.6062741919709 89.86733742301443 l -19.304376065441705 -10.634317971890884 a43.03968361849326,43.03968361849326 0 0,0 0.3630548130574966,-0.6458340016846165 l 19.118463611091776 10.965035483510285" fill="#fff917" stroke="none" /><line stroke="#e1ed5e" stroke-width="0.3" x1="26.266209847984243" x2="21.928928074336255" y1="57.711370442889674" y2="55.22380399835377" /><path d="M 25.398753493254645 57.213857153982495 a86.0,86.0 0 0,1 29.58750427330803,-30.492523968695096" fill="none" id="id59" stroke="none" /><text fill="#e1ed5e" style="font-size:6.75px; font-family:Arial;" text-anchor="middle"><textPath startOffset="21.46611528233685" xlink:href="#id59">November</textPath></text><path d="M 81.78341655067845 89.55222093294921 l -11.127476803923566 -6.381955186303374 a33.82770798006571,33.82770798006571 0 0,0 0.29404384888590385,-0.5026162534600498 l 11.015973280567337 6.572550852117315" fill="#ff7b0b" stroke="none" /><path d="M 81.96595687620814 89.24020034530311 l -11.745269372264183 -7.007676784873851 a34.67694726714653,34.67694726714653 0 0,0 0.31025002643613225,-0.5099694687092247 l 11.622903547541833 7.20881402679015" fill="#ff870c" stroke="none" /><path d="M 82.54541684631803 88.32363383020206 l -31.83078455530289 -21.293427214345346 a59.29632995390984,59.29632995390984 0 0,0 0.5748229549642796,-0.8434817569829335 l 31.459537134669873 21.838186994598694" fill="#46ff2c" stroke="none" /><path d="M 82.95767976084542 87.72973835380427 l -25.42024349351378 -18.302263682312535 a52.323499727304196,52.323499727304196 0 0,0 0.5325470540884578,-0.726393583288246 l 25.101433826911688 18.73711970927228" fill="#94ff23" stroke="none" /><path d="M 83.17141714833178 87.43820079747576 l -16.93071280290706 -12.638034732950896 a42.127445608160826,42.127445608160826 0 0,0 0.4387755205430939,-0.5773771523463177 l 16.710661342139858 12.92759666117824" fill="#ffed16" stroke="none" /><path d="M 83.6137871275137 86.86637796730984 l -17.4181234891675 -13.960702952270253 a43.32246072469198,43.32246072469198 0 0,0 0.47139274297873224,-0.5778717647865875 l 17.175232254112373 14.258458886664924" fill="#fffc17" stroke="none" /><path d="M 83.84228863543731 86.58626213691792 l -12.752191731265869 -10.586558529453766 a37.57388353550597,37.57388353550597 0 0,0 0.4174089637573539,-0.4940805555241851 l 12.568072154021392 10.804498034607068" fill="#ffb010" stroke="none" /><path d="M 84.5562425177563 85.77008943001954 l -16.6531254361229 -15.344224741883728 a43.64446554283585,43.64446554283585 0 0,0 0.5138256236820699,-0.5481133498884737 l 16.386532490470373 15.628607508650251" fill="#feff18" stroke="none" /><path d="M 85.31137513191541 84.99185889309783 l -15.599614708000807 -15.9389473727851 a43.302421895177396,43.302421895177396 0 0,0 0.5371907855170387,-0.5167771100516841 l 15.32294067887134 16.205107569599097" fill="#fffc17" stroke="none" /><path d="M 85.57189188830299 84.74124197986013 l -12.96192697248961 -13.708166421874704 a39.86598466791402,39.86598466791402 0 0,0 0.5026761164199416,-0.46718266659009794 l 12.724042972274813 13.929253674539451" fill="#ffcf13" stroke="none" /><path d="M 85.83668400450813 84.49514656593479 l -12.232224218723122 -13.390850260228085 a39.136763218087374,39.136763218087374 0 0,0 0.501302823177316,-0.45007462432048245 l 11.999910407949836 13.599423893317846" fill="#ffc512" stroke="none" /><path d="M 86.93701828274178 83.55741782278169 l -13.1496461719824 -16.551668100286197 a42.13932144961997,42.13932144961997 0 0,0 0.5718254648006577,-0.44631884542213884 l 12.862788152022317 16.775565334931557" fill="#ffed16" stroke="none" /><path d="M 87.80319425747018 82.90503203632743 l -20.819181651623733 -29.180037042269646 a56.845681559032116,56.845681559032116 0 0,0 0.8014398170844179,-0.5614598085122617 l 20.313810694955656 29.53408169354585" fill="#61ff29" stroke="none" /><line stroke="#e1ed5e" stroke-width="0.3" x1="56.762969772571076" x2="54.21961505331055" y1="26.818313649435495" y2="22.513508569990535" /><path d="M 56.25429882871897 25.957352633546506 a86.0,86.0 0 0,1 42.265352541879196,-11.944610805530505" fill="none" id="id60" stroke="none" /><text fill="#e1ed5e" style="font-size:6.75px; font-family:Arial;" text-anchor="middle"><textPath startOffset="22.20632615414155" xlink:href="#id60">December</textPath></text><path d="M 89.3179101791058 81.91981866633112 l -10.892837914743664 -18.436887167116392 a42.41431124855194,42.41431124855194 0 0,0 0.6317778642276177,-0.3659665174001032 l 10.573863318050726 18.621657841906543" fill="#fff016" stroke="none" /><path d="M 90.26544431104013 81.39251694778311 l -10.042853899545634 -19.196791276629163 a42.66508042371605,42.66508042371605 0 0,0 0.6536686748815516,-0.33483448390340537 l 9.710924737075318 19.36681828584507" fill="#fff417" stroke="none" /><path d="M 90.91171255644093 81.06846463323043 l -9.329125291863864 -19.43321736914398 a42.556495912547874,42.556495912547874 0 0,0 0.6631148911107055,-0.3113413327764161 l 8.99323218945355 19.5909236845604" fill="#fff216" stroke="none" /><path d="M 91.23893434514133 80.91482961587045 l -9.13940604351725 -19.909349892103254 a42.90687006293851,42.90687006293851 0 0,0 0.6738787136847504,-0.30234973573732765 l 8.795345211365726 20.06371995835711" fill="#fff717" stroke="none" /><path d="M 91.56875222667455 80.76684994638697 l -8.803621329395487 -20.082599230347125 a42.92748367592885,42.92748367592885 0 0,0 0.6793095267953599,-0.2908448876562356 l 8.456628044809818 20.231163645966145" fill="#fff717" stroke="none" /><path d="M 94.98787191387505 79.60689891045804 l -4.714693102916575 -19.182912208510363 a40.75379588469277,40.75379588469277 0 0,0 0.682677145647556,-0.16156762396082014 l 4.383792270306485 19.261225744612055" fill="#ffdb14" stroke="none" /><path d="M 97.47563105711357 79.15227682838746 l -2.7013413152973165 -22.30926509061077 a43.47221737579264,43.47221737579264 0 0,0 0.7436508549356241,-0.08355783832822623 l 2.316923756851974 22.352458882409593" fill="#fffe18" stroke="none" /><path d="M 98.55514903715128 79.0497635885617 l -1.501563621132692 -21.772565931313384 a42.824282818495945,42.824282818495945 0 0,0 0.7358393558161244,-0.044387839432941605 l 1.1265622164769444 21.79518704012663" fill="#fff617" stroke="none" /></svg>