<?xml version="1.0" encoding="utf-8" ?>
<svg baseProfile="full" height="200mm" version="1.1" viewBox="0,0,200,200" width="200mm" xmlns="http://www.w3.org/2000/svg" xmlns:ev="http://www.w3.org/2001/xml-events" xmlns:xlink="http://www.w3.org/1999/xlink"><defs /><rect fill="#1a1a1a" height="200" width="200" x="0" y="0" /><text alignment-baseline="middle" fill="#e1ed5e" style="dominant-baseline: central; font-size:9.0px; font-family:Arial;" text-anchor="middle" x="100.0" y="100.0">2021</text><line stroke="#e1ed5e" stroke-width="0.3" x1="100.0" x2="100.0" y1="15.0" y2="10.0" /><path d="M 100.0 14.0 a86.0,86.0 0 0,1 42.46469731375804,11.215312516191453" fill="none" id="id73" stroke="none" /><text fill="#e1ed5e" style="font-size:6.75px; font-family:Arial;" text-anchor="middle"><textPath startOffset="22.20632615414155" xlink:href="#id73">January</textPath></text><path d="M 103.2404852339499 79.25152402106235 l 2.718610364979756 -17.40696771671986 a38.6179842038612,38.6179842038612 0 0,0 0.6559003373003596,0.1082291756255131 l -3.017839908418991 17.35759227815472" fill="#ffcd13" stroke="none" /><path d="M 104.66035177308747 79.52364482259891 l 4.333951414730779 -19.04223818513059 a40.52920812435805,40.52920812435805 0 0,0 0.6789150192531054,0.16067725019268217 l -4.661090120946408 18.96481502279704" fill="#ffe515" stroke="none" /><path d="M 105.71112130821622 79.79150937346287 l 1.646668380558055 -5.826646071350216 a27.054859304419104,27.054859304419104 0 0,0 0.4470619446071326,0.1305096408765247 l -1.7467205428886148 5.797438101554987" fill="#ff2c04" stroke="none" /><path d="M 106.74666289553966 80.11325718540242 l 4.864701038477291 -14.339394144927907 a36.1421114986436,36.1421114986436 0 0,0 0.587426336458988,0.2049415143720681 l -5.110809378999552 14.253531777383632" fill="#ffac0f" stroke="none" /><path d="M 107.4271985657038 80.35727306442388 l 12.390801106290814 -32.76997652490273 a56.03431622706991,56.03431622706991 0 0,0 0.8992622812502333,0.3488997942473199 l -12.953046552540714 32.551834026764865" fill="#62ff29" stroke="none" /><path d="M 108.09893153111575 80.62456947434976 l 9.184666934262998 -21.972883139256947 a44.81524092140968,44.81524092140968 0 0,0 0.7091824979392646,0.30363493489330584 l -9.561533189992577 21.81152867640085" fill="#e3ff1b" stroke="none" /><path d="M 109.41281617654863 81.2277094730956 l 6.604672016172491 -13.171915779191032 a35.73502825702461,35.73502825702461 0 0,0 0.5474938365436733,0.2804476078536505 l -6.8304263403049195 13.056275646024881" fill="#ffa60f" stroke="none" /><path d="M 110.05341064243156 81.56283822128135 l 2.2795959100720324 -4.180599010520282 a25.761718765317866,25.761718765317866 0 0,0 0.38750030390784895,0.21564349958704065 l -2.3512203030519165 4.140740113373062" fill="#ff1802" stroke="none" /><path d="M 110.36928655335952 81.73862282372117 l 7.265925025882041 -12.796039221156146 a35.71503605945651,35.71503605945651 0 0,0 0.5319895228341248,0.3081626691732375 l -7.485111281181494 12.66907239459286" fill="#ffa60f" stroke="none" /><line stroke="#e1ed5e" stroke-width="0.3" x1="143.23703022742887" x2="145.7803849466894" y1="26.81831364943548" y2="22.513508569990506" /><path d="M 143.74570117128098 25.957352633546492 a86.0,86.0 0 0,1 28.547481713284135,27.462654790039103" fill="none" id="id74" stroke="none" /><text fill="#e1ed5e" style="font-size:6.75px; font-family:Arial;" text-anchor="middle"><textPath startOffset="19.985693538727396" xlink:href="#id74">February</textPath></text><path d="M 110.99172775467656 82.1063720568725 l 13.98392352605542 -22.764676340707492 a47.71667281080737,47.71667281080737 0 0,0 0.6961654600833591,0.4359387472378574 l -14.373708138511043 22.52059325214669" fill="#c0ff1e" stroke="none" /><path d="M 111.2981086023043 82.29822771554956 l 8.210429140476574 -12.864024600780521 a36.26087401167683,36.26087401167683 0 0,0 0.5232495475914253,0.34033606088653884 l -8.430645713852279 12.720789615734455" fill="#ffad10" stroke="none" /><path d="M 111.60114157652 82.49532879139004 l 8.22578522696234 -12.411680771316764 a35.8900423830554,35.8900423830554 0 0,0 0.5120232483577928,0.34572038291371227 l -8.438213169726675 12.26824847610438" fill="#ffa80f" stroke="none" /><path d="M 112.19680574252982 82.90503203632743 l 17.56403272886501 -24.617640319207517 a51.24108894511758,51.24108894511758 0 0,0 0.7136045931967494,0.5184640851374004 l -17.985182638415544 24.311656999253444" fill="#97ff23" stroke="none" /><path d="M 112.48926042617603 83.11751280151076 l 16.496703617348814 -22.29959005846718 a48.738293873530466,48.738293873530466 0 0,0 0.6701604673921981,0.5047509701562701 l -16.878110238499396 22.012322498805066" fill="#b4ff20" stroke="none" /><path d="M 113.06298171725822 83.55741782278167 l 11.69731249036542 -14.723592671138224 a39.804555316275206,39.804555316275206 0 0,0 0.5328059629074607,0.4308253678334299 l -11.949021851837372 14.520061206040664" fill="#ffdc14" stroke="none" /><path d="M 113.89432698308785 84.25364557470407 l 30.187933273605893 -34.21179717966749 a66.6262904649763,66.6262904649763 0 0,0 0.8534161939198418,0.7662054852055468 l -30.772360455121724 33.68709268569265" fill="#37ff75" stroke="none" /><path d="M 114.16331599549186 84.49514656593476 l 5.723538681389533 -6.265667475568169 a29.486311563438797,29.486311563438797 0 0,0 0.3717972779984494,0.3455450499684088 l -5.83054384318283 6.16621783952512" fill="#ff4f07" stroke="none" /><path d="M 114.68862486808459 84.99185889309783 l 10.410412878990279 -10.636866750438827 a35.883535553679366,35.883535553679366 0 0,0 0.43771796058455753,0.4358382605554976 l -10.591966639742159 10.456092639233212" fill="#ffa80f" stroke="none" /><path d="M 115.68641384162765 86.03803664274999 l 6.588606341220836 -5.86430278075115 a29.82041839279187,29.82041839279187 0 0,0 0.3379762956665358,0.3863653310570553 l -6.68857450046522 5.750021893491147" fill="#ff5407" stroke="none" /><path d="M 116.15771136456269 86.58626213691792 l 23.14963390592902 -19.21826141302982 a51.087324934564876,51.087324934564876 0 0,0 0.5558824182538358,0.6814461165022102 l -23.477014816259263 18.816931126919506" fill="#99ff23" stroke="none" /><path d="M 116.38621287248628 86.86637796730983 l 4.696284011754987 -3.7640923896527703 a27.018594108004578,27.018594108004578 0 0,0 0.2877427771591995,0.365404106255663 l -4.76038086950815 3.682695889444069" fill="#ff2b04" stroke="none" /><path d="M 116.82858285166822 87.43820079747576 l 11.71053780367571 -8.741402989186405 a35.61330975072639,35.61330975072639 0 0,0 0.36247122789825015,0.49441034749985413 l -11.859271644087585 8.538530198015057" fill="#ffa50f" stroke="none" /><path d="M 117.45458315368197 88.32363383020206 l 12.245067261117228 -8.191423871640781 a35.732314728995284,35.732314728995284 0 0,0 0.337591022318202,0.5141742877793748 l -12.384254918793355 7.9794315198837324" fill="#ffa60f" stroke="none" /><path d="M 117.65298651832404 88.62581576622439 l 13.204653138917514 -8.508031056912083 a36.708260788021846,36.708260788021846 0 0,0 0.3376677606691671,0.5341093062904972 l -13.349148495832637 8.279474102907379" fill="#ffb310" stroke="none" /><line stroke="#e1ed5e" stroke-width="0.3" x1="172.23445277983987" x2="176.4835382374775" y1="55.19839476539836" y2="52.563006222186495" /><path d="M 173.08426987136738 54.67131705675599 a86.0,86.0 0 0,1 12.851231095245387,41.99856678651699" fill="none" id="id75" stroke="none" /><text fill="#e1ed5e" style="font-size:6.75px; font-family:Arial;" text-anchor="middle"><textPath startOffset="22.20632615414155" xlink:href="#id75">March</textPath></text><path d="M 118.03404312379186 89.2402003453031 l 18.07897883051513 -10.786610015433295 a42.052326027763776,42.052326027763776 0 0,0 0.36553548963752036,0.6248186418604017 l -18.261973994622977 10.473811961218999" fill="#fff917" stroke="none" /><path d="M 118.3937258080291 89.86733742301442 l 18.514866433625205 -10.19939604340458 a42.13830548329734,42.13830548329734 0 0,0 0.3445145601971574,0.638333157351572 l -18.687689093040827 9.87918190272055" fill="#fffa17" stroke="none" /><path d="M 118.73160827565052 90.50648371742162 l 10.501615887837495 -5.322407983203827 a32.77335818682812,32.77335818682812 0 0,0 0.25070056355263737,0.505397038166368 l -10.59167646434354 5.1408513565385086" fill="#ff7e0b" stroke="none" /><path d="M 118.89224826269711 90.83032412892265 l 17.278119873101716 -8.386231045396187 a40.20578812483464,40.20578812483464 0 0,0 0.29683704804238253,0.6252145260625833 l -17.419915114985855 8.087574103693063" fill="#ffe115" stroke="none" /><path d="M 119.04729006885535 91.15688171328212 l 2.8459343731863447 -1.3212868711163364 a24.137696838808356,24.137696838808356 0 0,0 0.17171980864567202,0.3783618360275346 l -2.868256498795364 1.272103026246739" fill="#ff0000" stroke="none" /><path d="M 119.34039704204932 91.81776055985345 l 6.740480747100522 -2.851659523564278 a28.318882615561453,28.318882615561453 0 0,0 0.18606626916966473,0.45057422943842657 l -6.788568703156384 2.7352107236725485" fill="#ff3e05" stroke="none" /><path d="M 119.47837535516314 92.15188598940014 l 19.520865779809554 -7.865234006025728 a42.04580971982031,42.04580971982031 0 0,0 0.26470129740033044,0.673635929533145 l -19.653360627091583 7.528049071596799" fill="#fff917" stroke="none" /><path d="M 119.61058180528143 92.48833698450437 l 11.090123484711011 -4.247975467762404 a32.87586352569151,32.87586352569151 0 0,0 0.1978742046997232,0.5302044917301411 l -11.16160227791236 4.05644783900293" fill="#ff7f0b" stroke="none" /><path d="M 119.7369772167798 92.82701384747503 l 28.238750734843535 -10.262775589234078 a51.045825098665624,51.045825098665624 0 0,0 0.29301985491264004,0.8284065883160542 l -28.411223670565985 9.77517137449141" fill="#99ff23" stroke="none" /><path d="M 119.97218684219823 93.5106431181261 l 28.677478023621312 -9.317877448160885 a51.153284828260894,51.153284828260894 0 0,0 0.2648875815388757,0.8397660205373773 l -28.833621088928396 8.822861261197088" fill="#98ff23" stroke="none" /><path d="M 120.08093135843002 93.85539295169968 l 14.115376378227115 -4.319194146672646 a35.7614121402955,35.7614121402955 0 0,0 0.1750505847133502,0.5901835493463001 l -14.187632860052169 4.0755812105798155" fill="#ffa70f" stroke="none" /><path d="M 120.28053869075195 94.5502522615342 l 19.49770358690168 -5.239385780045772 a41.1893934657489,41.1893934657489 0 0,0 0.1781022864155898,0.686300762054303 l -19.58500220518757 4.902988592442618" fill="#ffee16" stroke="none" /><path d="M 120.45610955862082 95.25157060432595 l 11.265045867682057 -2.614929040560166 a32.56456277980908,32.56456277980908 0 0,0 0.12204827979026213,0.5471185070370169 l -11.308388534474357 2.4206323639731853" fill="#ff7b0b" stroke="none" /><path d="M 120.53481517161879 95.60439243477599 l 15.80747629468148 -3.38369066423517 a37.16557049157713,37.16557049157713 0 0,0 0.1285233284199593,0.6267253935067721 l -15.863378919016435 3.111089614564986" fill="#ffb911" stroke="none" /><path d="M 120.67395015179393 96.31383870115 l 21.546666625302937 -3.8417664766654456 a42.88648012639707,42.88648012639707 0 0,0 0.12332546194205092,0.7278738574361093 l -21.60960394876521 3.4703068309134983" fill="#fbff18" stroke="none" /><path d="M 120.73433829027371 96.67025291283417 l 15.036848748648392 -2.4147818280968245 a36.22951054916196,36.22951054916196 0 0,0 0.09358273480336905,0.6165932965652813 l -15.076187376891061 2.155589419139461" fill="#ffad10" stroke="none" /><path d="M 120.87857604477298 97.74499172005257 l 34.173040610744714 -3.690888179488726 a55.37178145131697,55.37178145131697 0 0,0 0.09419234235888084,0.9485040331678576 l -34.231510078785824 3.1021086156164333" fill="#69ff28" stroke="none" /><path d="M 120.94382443527127 98.46500227214037 l 30.15375378175282 -2.2100043707146315 a51.23463223604928,51.23463223604928 0 0,0 0.056893397326228126,0.8801156750230487 l -30.187327770083463 1.6906296314385478" fill="#97ff23" stroke="none" /><path d="M 120.98425023603335 99.18683210126433 l 15.926528464023985 -0.6171743826713109 a36.93848214649036,36.93848214649036 0 0,0 0.0191522609502708,0.6355703003969364 l -15.9347924194299 0.34293393484937534" fill="#ffb610" stroke="none" /><line stroke="#e1ed5e" stroke-width="0.3" x1="184.98032266829074" x2="189.97916517819016" y1="98.17113171792111" y2="98.06355123074" /><path d="M 185.9800911702706 98.14961562048488 a86.0,86.0 0 0,1 -9.607161424134198,41.387399972396054" fill="none" id="id76" stroke="none" /><text fill="#e1ed5e" style="font-size:6.75px; font-family:Arial;" text-anchor="middle"><textPath startOffset="21.466115282336823" xlink:href="#id76">April</textPath></text><path d="M 120.99980553446 99.90962569577887 l 18.036821057060973 -0.07762286896981162 a39.03698808432897,39.03698808432897 0 0,0 -0.0028919022939251976,0.6719762472362201 l -18.03548485747754 -0.23286285647009314" fill="#ffd213" stroke="none" /><path d="M 120.99824983174949 100.27111621757518 l 11.470920353523145 0.1481053213135474 a32.47187643513793,32.47187643513793 0 0,0 -0.012026867591080305,0.5588412782887537 l -11.466671423247057 -0.3455364153924159" fill="#ff790b" stroke="none" /><path d="M 120.9904718944345 100.63252640178507 l 19.81152208392794 0.5969999550584186 a40.820515034385565,40.820515034385565 0 0,0 -0.027209530780799608,0.7021570866203287 l -19.798310420295937 -0.9379342886927536" fill="#ffe915" stroke="none" /><path d="M 120.9764740272857 100.99374915477107 l 14.564259031668842 0.68997392430021 a35.58059344326429,35.58059344326429 0 0,0 -0.034248268146458094,0.6115258344402129 l -14.550224412634854 -0.9405714750758463" fill="#ffa40f" stroke="none" /><path d="M 120.92983693683757 101.71520430193887 l 8.723323124996542 0.7148780660045434 a29.752566308937844,29.752566308937844 0 0,0 -0.046223308934389695,0.5100703623647802 l -8.709725219785078 -0.8649298169178942" fill="#ff5307" stroke="none" /><path d="M 120.76222939487914 103.15116336523771 l 62.28668818463745 9.453490095713112 a84.0,84.0 0 0,0 -0.2292729825548463,1.4276830812271801 l -62.114733447721314 -10.524252406633499" fill="#4dd2ff" stroke="none" /><path d="M 120.49622156327973 104.57218783832717 l 8.77112932310213 1.9566167693722556 a29.986715683984375,29.986715683984375 0 0,0 -0.11671891283858563,0.5028220216908698 l -8.736149844332992 -2.1073074484116905" fill="#ff5608" stroke="none" /><path d="M 120.32669344350535 105.2749913415812 l 18.924224357006487 4.911035821285772 a40.551075171260266,40.551075171260266 0 0,0 -0.18115116039167242,0.6741308577031841 l -18.83688512027304 -5.236057612164504" fill="#ffe615" stroke="none" /><path d="M 120.23288151984713 105.62410040840565 l 26.528117214956175 7.373976599255818 a48.533916064679694,48.533916064679694 0 0,0 -0.2306686754289076,0.8029879200552874 l -26.397255902641167 -7.829521994815687" fill="#b6ff1f" stroke="none" /><line stroke="#e1ed5e" stroke-width="0.3" x1="174.80103733775053" x2="179.2010983576182" y1="140.37084112569926" y2="142.7455964860345" /><path d="M 175.68104954172406 140.8457921977663 a86.0,86.0 0 0,1 -30.038265399797805,32.042727171017184" fill="none" id="id77" stroke="none" /><text fill="#e1ed5e" style="font-size:6.75px; font-family:Arial;" text-anchor="middle"><textPath startOffset="22.206326154141568" xlink:href="#id77">May</textPath></text><line stroke="#e1ed5e" stroke-width="0.3" x1="143.8653032363475" x2="146.44561519142675" y1="172.8068346515853" y2="177.08958963109032" /><path d="M 144.38136562736335 173.6633856474863 a86.0,86.0 0 0,1 -40.68145358897372,12.25698825130547" fill="none" id="id78" stroke="none" /><text fill="#e1ed5e" style="font-size:6.75px; font-family:Arial;" text-anchor="middle"><textPath startOffset="21.466115282336833" xlink:href="#id78">June</textPath></text><line stroke="#e1ed5e" stroke-width="0.3" x1="102.19456741930631" x2="102.32365962044197" y1="184.97166512339345" y2="189.96999836594603" /><path d="M 102.22038585953345 185.97133177190398 a86.0,86.0 0 0,1 -42.740103519485714,-10.115201625700543" fill="none" id="id79" stroke="none" /><text fill="#e1ed5e" style="font-size:6.75px; font-family:Arial;" text-anchor="middle"><textPath startOffset="22.20632615414155" xlink:href="#id79">July</textPath></text><line stroke="#e1ed5e" stroke-width="0.3" x1="58.666819895761336" x2="56.23545636021788" y1="174.27360380694188" y2="178.64263932499728" /><path d="M 58.180547188652646 175.14741091055294 a86.0,86.0 0 0,1 -31.652253787137756,-30.449443065178592" fill="none" id="id80" stroke="none" /><text fill="#e1ed5e" style="font-size:6.75px; font-family:Arial;" text-anchor="middle"><textPath startOffset="22.20632615414155" xlink:href="#id80">August</textPath></text><line stroke="#e1ed5e" stroke-width="0.3" x1="26.63291911575756" x2="22.317208475507996" y1="142.92168965132927" y2="145.44649492493687" /><path d="M 25.769776987707644 143.4266507060508 a86.0,86.0 0 0,1 -11.730757126820373,-40.83630448921669" fill="none" id="id81" stroke="none" /><text fill="#e1ed5e" style="font-size:6.75px; font-family:Arial;" text-anchor="middle"><textPath startOffset="21.46611528233685" xlink:href="#id81">September</textPath></text><line stroke="#e1ed5e" stroke-width="0.3" x1="15.007084014347285" x2="10.007500721073583" y1="101.09737516637583" y2="101.16192664675087" /><path d="M 14.007167355692545 101.11028546245083 a86.0,86.0 0 0,1 10.666146001902534,-42.60595125391555" fill="none" id="id82" stroke="none" /><text fill="#e1ed5e" style="font-size:6.75px; font-family:Arial;" text-anchor="middle"><textPath startOffset="22.20632615414155" xlink:href="#id82">October</textPath></text><line stroke="#e1ed5e" stroke-width="0.3" x1="26.266209847984243" x2="21.928928074336255" y1="57.711370442889674" y2="55.22380399835377" /><path d="M 25.398753493254645 57.213857153982495 a86.0,86.0 0 0,1 29.58750427330803,-30.492523968695096" fill="none" id="id83" stroke="none" /><text fill="#e1ed5e" style="font-size:6.75px; font-family:Arial;" text-anchor="middle"><textPath startOffset="21.46611528233685" xlink:href="#id83">November</textPath></text><line stroke="#e1ed5e" stroke-width="0.3" x1="56.762969772571076" x2="54.21961505331055" y1="26.818313649435495" y2="22.513508569990535" /><path d="M 56.25429882871897 25.957352633546506 a86.0,86.0 0 0,1 42.265352541879196,-11.944610805530505" fill="none" id="id84" stroke="none" /><text fill="#e1ed5e" style="font-size:6.75px; font-family:Arial;" text-anchor="middle"><textPath startOffset="22.20632615414155" xlink:href="#id84">December</textPath></text></svg>