<?xml version="1.0" encoding="utf-8" ?>
<svg baseProfile="full" height="200mm" version="1.1" viewBox="0,0,200,200" width="200mm" xmlns="http://www.w3.org/2000/svg" xmlns:ev="http://www.w3.org/2001/xml-events" xmlns:xlink="http://www.w3.org/1999/xlink"><defs /><rect fill="#1a1a1a" height="200" width="200" x="0" y="0" /><text alignment-baseline="middle" fill="#e1ed5e" style="dominant-baseline: central; font-size:9.0px; font-family:Arial;" text-anchor="middle" x="100.0" y="100.0">2016</text><line stroke="#e1ed5e" stroke-width="0.3" x1="100.0" x2="100.0" y1="15.0" y2="10.0" /><path d="M 100.0 14.0 a86.0,86.0 0 0,1 42.35913384403234,11.155469271406648" fill="none" id="id13" stroke="none" /><text fill="#e1ed5e" style="font-size:6.75px; font-family:Arial;" text-anchor="middle"><textPath startOffset="22.145653131862478" xlink:href="#id13">January</textPath></text><path d="M 102.87502721639298 79.19773525538626 l 2.052761751060256 -14.852761448549533 a35.99394389258994,35.99394389258994 0 0,0 0.6113398160310731,0.08984590031380052 l -2.307426672699011 14.815334474936849" fill="#ffb010" stroke="none" /><path d="M 105.69591212413111 79.78721728523813 l 0.9028086873702172 -3.2037495370589633 a24.328524391107365,24.328524391107365 0 0,0 0.4010035776910351,0.11672629717710052 l -0.9576722774428569 3.1877795455793465" fill="#ff0c01" stroke="none" /><line stroke="#e1ed5e" stroke-width="0.3" x1="143.13028292997686" x2="145.6673583964461" y1="26.7553504044142" y2="22.446841604673864" /><path d="M 143.63769802327073 25.89364864446614 a86.0,86.0 0 0,1 29.32050498858742,28.57503671076993" fill="none" id="id14" stroke="none" /><text fill="#e1ed5e" style="font-size:6.75px; font-family:Arial;" text-anchor="middle"><textPath startOffset="20.669276256404974" xlink:href="#id14">February</textPath></text><path d="M 110.65571695917076 81.90426304109057 l 1.5170522666184654 -2.5762864080223715 a23.989765749321013,23.989765749321013 0 0,0 0.35306908433216777,0.21200784064270803 l -1.5610541075080675 2.5498645668437425" fill="#ff0701" stroke="none" /><path d="M 110.96478420261332 82.08984904055464 l 7.016822016469781 -11.461451429256682 a34.43877450052739,34.43877450052739 0 0,0 0.501552981084925,0.3130061548950889 l -7.212539126344419 11.339309477520048" fill="#ff9b0e" stroke="none" /><path d="M 111.8722381534696 82.67804972795209 l 3.5281424762964093 -5.14766531273179 a27.240692870583285,27.240692870583285 0 0,0 0.38345154916058843,0.2676789616621517 l -3.6159891166307583 5.086341535264512" fill="#ff3705" stroke="none" /><path d="M 112.16784306229584 82.88440491214696 l 15.954471425527123 -22.441962093199493 a48.53519241008794,48.53519241008794 0 0,0 0.674914183280902,0.48858582079771373 l -16.337366619181992 22.164775501028707" fill="#b2ff20" stroke="none" /><path d="M 112.45986205192187 83.09580414077388 l 2.2672196044456245 -3.075918825563119 a24.82119894224786,24.82119894224786 0 0,0 0.340815167935639,0.25575405579033317 l -2.31968776129203 3.0365457425087707" fill="#ff1302" stroke="none" /><path d="M 113.03279911837588 83.53348406188908 l 10.671660222765889 -13.483294075829914 a38.195451463845714,38.195451463845714 0 0,0 0.5106354083051314,0.41133173894665576 l -10.901546401426279 13.29811404308985" fill="#ffcd13" stroke="none" /><path d="M 113.31354834802062 83.75963576809568 l 2.0926424790131106 -2.552683565488449 a24.300809890085304,24.300809890085304 0 0,0 0.32033751801086324,0.2672369507232917 l -2.1361543311858666 2.5163844308532872" fill="#ff0c01" stroke="none" /><path d="M 113.86319453409587 84.22622945171908 l 1.670048773889666 -1.9002089380614404 a23.529793848411163,23.529793848411163 0 0,0 0.3011085008906798,0.26925307822359934 l -1.7024223016037214 1.8712603299544541" fill="#ff0000" stroke="none" /><path d="M 116.1254893667686 86.54754324733833 l 3.7079788056748746 -3.093327798530131 a25.828849106411727,25.828849106411727 0 0,0 0.28110788660361585,0.34290591415340244 l -3.760533511517118 3.0292196026782334" fill="#ff2203" stroke="none" /><path d="M 117.42321728460499 88.27688183743584 l 7.623353692406896 -5.129332583717011 a30.188339037819343,30.188339037819343 0 0,0 0.2856040569709599,0.43244094390945514 l -7.71028218829858 4.997711761468498" fill="#ff6108" stroke="none" /><line stroke="#e1ed5e" stroke-width="0.3" x1="172.87174338648825" x2="177.1583165268699" y1="56.24261187166439" y2="53.66864786411523" /><path d="M 173.72905801456457 55.72781907015455 a86.0,86.0 0 0,1 12.242430191666344,42.057860355516425" fill="none" id="id15" stroke="none" /><text fill="#e1ed5e" style="font-size:6.75px; font-family:Arial;" text-anchor="middle"><textPath startOffset="22.145653131862474" xlink:href="#id15">March</textPath></text><path d="M 120.43855184770803 95.1765574152323 l 4.028414670096658 -0.950694893338352 a25.13907544440417,25.13907544440417 0 0,0 0.09551548433075396,0.42085884775090576 l -4.044141015985078 0.88140171164842" fill="#ff1802" stroke="none" /><line stroke="#e1ed5e" stroke-width="0.3" x1="184.99686870605535" x2="189.99668451229388" y1="99.2704041080226" y2="99.22748670261217" /><path d="M 185.99683186730306 99.26182062694052 a86.0,86.0 0 0,1 -10.086455211305974,41.156179273409016" fill="none" id="id16" stroke="none" /><text fill="#e1ed5e" style="font-size:6.75px; font-family:Arial;" text-anchor="middle"><textPath startOffset="21.40746469413373" xlink:href="#id16">April</textPath></text><path d="M 120.98066250479742 100.90099992219065 l 7.49215259466473 0.3217452691634406 a28.499057975504023,28.499057975504023 0 0,0 -0.025185581810016216,0.4885935587320617 l -7.4855254233981405 -0.45031062127223287" fill="#ff4906" stroke="none" /><path d="M 120.35273937422433 105.17358676015961 l 8.737925787299183 2.221146565738459 a30.015810508813935,30.015810508813935 0 0,0 -0.13122700699433526,0.49829032002020124 l -8.698509299500117 -2.3708173901314633" fill="#ff5e08" stroke="none" /><path d="M 119.58574465831526 107.57618678355244 l 4.721542327147073 1.8263940024219691 a26.062477357887573,26.062477357887573 0 0,0 -0.1649895368391883,0.41588141197726725 l -4.689494115341761 -1.9071764316128017" fill="#ff2603" stroke="none" /><path d="M 118.5362547648365 109.86951160357373 l 3.643518983723369 1.939968636809795 a25.12779709973228,25.12779709973228 0 0,0 -0.20599367260195764,0.37900515603671814 l -3.6096799615060724 -2.0022286263211164" fill="#ff1802" stroke="none" /><line stroke="#e1ed5e" stroke-width="0.3" x1="174.33088141563837" x2="178.70328620479359" y1="141.23008692659167" y2="143.65538615756765" /><path d="M 175.20536237346943 141.71514677278685 a86.0,86.0 0 0,1 -30.301960400862466,31.631185727798858" fill="none" id="id17" stroke="none" /><text fill="#e1ed5e" style="font-size:6.75px; font-family:Arial;" text-anchor="middle"><textPath startOffset="22.145653131862474" xlink:href="#id17">May</textPath></text><path d="M 118.36410011445183 110.18625677009912 l 4.331954381597605 2.4028620717757563 a25.95374352386366,25.95374352386366 0 0,0 -0.21945328107765072,0.38775292005695056 l -4.2900677354985755 -2.4768717619318297" fill="#ff2403" stroke="none" /><path d="M 115.6541949942343 113.99807769240083 l 10.711699679913893 9.578467905397007 a35.369674924903066,35.369674924903066 0 0,0 -0.4086078312979426,0.4491315841529369 l -10.54569414777407 -9.760937065107615" fill="#ffa80f" stroke="none" /><path d="M 113.86319453409587 115.77377054828091 l 2.447637730041718 2.784962430126583 a24.707687445664796,24.707687445664796 0 0,0 -0.3209887687039539,0.2772624533237496 l -2.3994694815749087 -2.8265690159150503" fill="#ff1202" stroke="none" /><line stroke="#e1ed5e" stroke-width="0.3" x1="143.1302829299769" x2="145.66735839644613" y1="173.24464959558577" y2="177.55315839532614" /><path d="M 143.63769802327073 174.10635135553383 a86.0,86.0 0 0,1 -40.68552437913181,11.842963189579606" fill="none" id="id18" stroke="none" /><text fill="#e1ed5e" style="font-size:6.75px; font-family:Arial;" text-anchor="middle"><textPath startOffset="21.407464694133747" xlink:href="#id18">June</textPath></text><path d="M 107.407793817531 119.65005319985036 l 0.922369568099584 2.446694863481059 a23.614781324535727,23.614781324535727 0 0,0 -0.3805475324542102,0.13974232504974976 l -0.8802328839912469 -2.4621680375395303" fill="#ff0100" stroke="none" /><path d="M 106.72888874123015 119.89276391827305 l 1.767130882491458 5.22420845550577 a26.514989169747572,26.514989169747572 0 0,0 -0.4324181381978631,0.14214443094122003 l -1.6771900066458607 -5.253773807849009" fill="#ff2c04" stroke="none" /><line stroke="#e1ed5e" stroke-width="0.3" x1="101.45913802915013" x2="101.54496967792366" y1="184.9874750549273" y2="189.98673829345242" /><path d="M 101.47630435890484 185.9873277026323 a86.0,86.0 0 0,1 -42.54439059252881,-10.42667462771756" fill="none" id="id19" stroke="none" /><text fill="#e1ed5e" style="font-size:6.75px; font-family:Arial;" text-anchor="middle"><textPath startOffset="22.145653131862474" xlink:href="#id19">July</textPath></text><path d="M 100.36049292484886 120.99690560180557 l 0.16139002803886324 9.400160031505623 a30.401545370792302,30.401545370792302 0 0,0 -0.5218829528877144,0.004479737481114797 l -1.1513572445379408e-15 -9.401545370792302" fill="#ff6409" stroke="none" /><path d="M 98.91894614982273 120.97215588758144 l -0.5061624107484485 9.819415546144933 a30.832452494364134,30.832452494364134 0 0,0 -0.5283443889383322,-0.031783886443673005 l 0.6746511518192271 -9.809279681876568" fill="#ff6a09" stroke="none" /><path d="M 91.26138138417905 119.09545874513695 l -2.0978881640112963 4.584264246898404 a26.04148920797116,26.04148920797116 0 0,0 -0.40489714923792286,-0.1895123102989341 l 2.176274027120709 -4.547575705028944" fill="#ff2503" stroke="none" /><path d="M 90.6110303473126 118.78422872680471 l -3.302640485313934 6.607493321781618 a28.386907483691896,28.386907483691896 0 0,0 -0.4340125358451647,-0.22160989326429253 l 3.4155802428726814 -6.5498254768444895" fill="#ff4706" stroke="none" /><path d="M 90.28995756902619 118.62028667847754 l -5.595970188473351 10.731010692724418 a33.10245730575606,33.10245730575606 0 0,0 -0.5015986733161625,-0.26707304088322575 l 5.779357677576075 -10.633367184118619" fill="#ff890c" stroke="none" /><path d="M 89.97174638481275 118.45085714620012 l -5.279758512803299 9.71416099196337 a32.05625495958291,32.05625495958291 0 0,0 -0.48123431818848916,-0.2669325641387591 l 5.445737019147891 -9.622095512391462" fill="#ff7b0b" stroke="none" /><line stroke="#e1ed5e" stroke-width="0.3" x1="58.13341422392154" x2="55.67067388415222" y1="173.97424548756322" y2="178.32567169271397" /><path d="M 57.64086615596768 174.84453072859336 a86.0,86.0 0 0,1 -31.369924170532247,-30.572349798747897" fill="none" id="id20" stroke="none" /><text fill="#e1ed5e" style="font-size:6.75px; font-family:Arial;" text-anchor="middle"><textPath startOffset="22.145653131862474" xlink:href="#id20">August</textPath></text><path d="M 87.54013794807813 116.9041958592261 l -5.691708837300524 7.721896162130919 a30.592873908654127,30.592873908654127 0 0,0 -0.4200649405804866,-0.31522456262590093 l 5.823426766791777 -7.6230525722410025" fill="#ff6709" stroke="none" /><path d="M 87.2517909369889 116.68781488649013 l -7.86124047274161 10.2906161280281 a33.94974447874176,33.94974447874176 0 0,0 -0.4600837933726176,-0.3577639405184922 l 8.036734210749456 -10.154151135888815" fill="#ff950d" stroke="none" /><path d="M 86.96720088162412 116.46651593811092 l -4.701048907889215 5.939621723966489 a28.574890564105928,28.574890564105928 0 0,0 -0.38201802443121124,-0.3077266788447204 l 4.802317702675688 -5.8580467513283585" fill="#ff4a06" stroke="none" /><path d="M 86.40962598614128 116.0094264158162 l -3.383245245536289 3.9854543921925853 a26.22782890918315,26.22782890918315 0 0,0 -0.3407376156044752,-0.2943210369123995 l 3.4511623409036267 -3.9267892228154637" fill="#ff2803" stroke="none" /><path d="M 85.08716467003676 114.78537596483092 l -11.099296002484506 11.004430794722845 a36.629839054405295,36.629839054405295 0 0,0 -0.4388833798957107,-0.45033301128849607 l 11.286566183531026 -10.812275091366612" fill="#ffb911" stroke="none" /><path d="M 84.83555147118756 114.52719865689866 l -8.902203420419761 8.5281095007738 a33.327930783214256,33.327930783214256 0 0,0 -0.39222874603396934,-0.4165333360206428 l 9.047288000189983 -8.374034704808667" fill="#ff8c0c" stroke="none" /><path d="M 84.3458050057657 113.99807769240083 l -9.362558308328756 8.372057371707042 a33.55981061608853,33.55981061608853 0 0,0 -0.38032683915590665,-0.43274212732451234 l 9.504896211443256 -8.21010296657123" fill="#ff900d" stroke="none" /><path d="M 84.1078160697243 113.72728997021213 l -12.38696081713744 10.69956173000015 a37.368183145950624,37.368183145950624 0 0,0 -0.4151523942767707,-0.4890484765721878 l 12.568807774921323 -10.485346470978408" fill="#ffc212" stroke="none" /><path d="M 83.4222238831116 112.89097897827486 l -10.433979550750506 8.113525608024707 a34.217307859679764,34.217307859679764 0 0,0 -0.3565900078738216,-0.4667877669998595 l 10.571721535978623 -7.9332169277839775" fill="#ff980e" stroke="none" /><path d="M 83.20337586046588 112.60449989151573 l -7.843987909129172 5.886274761424271 a30.806955536023654,30.806955536023654 0 0,0 -0.3137878843774379,-0.4257135298661059 l 7.943877813090441 -5.7507549222892855" fill="#ff6a09" stroke="none" /><path d="M 82.576782715395 111.72311816256416 l -7.649488143603916 5.146917008825866 a30.219838586161792,30.219838586161792 0 0,0 -0.28590206603956037,-0.43289216762205374 l 7.736714648564203 -5.014844962864751" fill="#ff6109" stroke="none" /><path d="M 82.37810715431573 111.42229804090323 l -6.434903391571695 4.171026634119609 a28.668470828098393,28.668470828098393 0 0,0 -0.2641353292083958,-0.41526460922766384 l 6.505556412405981 -4.059948350213273" fill="#ff4b07" stroke="none" /><path d="M 82.18462484594161 111.11811171558189 l -2.168199001869603 1.3531165364714726 a23.555779973507285,23.555779973507285 0 0,0 -0.2111405911073281,-0.34488228774237883 l 2.191107557432336 -1.3156971326045368" fill="#ff0100" stroke="none" /><line stroke="#e1ed5e" stroke-width="0.3" x1="26.387840678322732" x2="22.057713659400548" y1="142.50000000000003" y2="145.00000000000006" /><path d="M 25.521815274538298 143.00000000000003 a86.0,86.0 0 0,1 -11.493303480769221,-40.785679425670985" fill="none" id="id21" stroke="none" /><text fill="#e1ed5e" style="font-size:6.75px; font-family:Arial;" text-anchor="middle"><textPath startOffset="21.40746469413373" xlink:href="#id21">September</textPath></text><path d="M 81.29705330413844 109.54985784667822 l -2.2455117911307765 1.1465743204563457 a23.521300433593204,23.521300433593204 0 0,0 -0.18053167834568387,-0.36118429006835795 l 2.264863382688197 -1.107858174224235" fill="#ff0000" stroke="none" /><path d="M 79.73907114497094 105.5222062557868 l -60.359596442502664 16.45127641760711 a83.56137289470473,83.56137289470473 0 0,0 -0.36532443000629455,-1.387196365355625 l 60.6331103533137 -15.412699547878683" fill="#4cd6ff" stroke="none" /><path d="M 79.64726062577567 105.17358676015961 l -61.05821812267298 15.520760280478815 a84.0,84.0 0 0,0 -0.34324989393482586,-1.4005767015676016 l 61.3156555431241 -14.470327754303112" fill="#4dd2ff" stroke="none" /><path d="M 79.56144815229197 104.8234425847677 l -56.26999716452679 13.279566115569622 a78.81573710603055,78.81573710603055 0 0,0 -0.29945903616131625,-1.3194717672270588 l 56.48966706224578 -12.311660014403538" fill="#46fffa" stroke="none" /><path d="M 79.48165901384964 104.47187691870673 l -56.891016502991185 12.399132256999403 a79.2265080480547,79.2265080480547 0 0,0 -0.2782068603264419,-1.3313205386791733 l 57.09548107414199 -11.420695267034821" fill="#47fffe" stroke="none" /><path d="M 79.34024301695615 103.76489593502545 l -60.34966487233172 10.997719292848855 a82.34355613955755,82.34355613955755 0 0,0 -0.24148299681871907,-1.3928097540411974 l 60.52956268664267 -9.960116505887065" fill="#4be2ff" stroke="none" /><path d="M 79.13060592940153 102.33845913500099 l -6.035905599483297 0.676335812116395 a27.073679818415272,27.073679818415272 0 0,0 -0.047788406551716935,-0.4623094832401706 l 6.046626398516681 -0.572621806593293" fill="#ff3405" stroke="none" /><line stroke="#e1ed5e" stroke-width="0.3" x1="15.003131293944662" x2="10.003315487706104" y1="100.72959589197737" y2="100.7725132973878" /><path d="M 14.003168132696942 100.73817937305945 a86.0,86.0 0 0,1 10.791469493833604,-42.45332614584628" fill="none" id="id22" stroke="none" /><text fill="#e1ed5e" style="font-size:6.75px; font-family:Arial;" text-anchor="middle"><textPath startOffset="22.145653131862435" xlink:href="#id22">October</textPath></text><path d="M 79.17382384314186 97.30363454192245 l -54.059398106043304 -6.999071391682138 a75.51060010615863,75.51060010615863 0 0,0 0.17746962730694432,-1.284081816797072 l 53.931283962181155 7.926041516679278" fill="#42ffd9" stroke="none" /><path d="M 79.2786578344484 96.59031103205396 l -54.89223859897134 -9.032496972514132 a76.63042207250342,76.63042207250342 0 0,0 0.2247285013801066,-1.2961742766851816 l 54.729095280098996 9.973464282119904" fill="#44ffe4" stroke="none" /><path d="M 79.56144815229197 95.17655741523228 l -61.156885607978076 -14.432858481916803 a83.83686864593392,83.83686864593392 0 0,0 0.34258328893503787,-1.3978567256889565 l 60.900114792526736 15.480571032213877" fill="#4dd4ff" stroke="none" /><line stroke="#e1ed5e" stroke-width="0.3" x1="26.387840678322718" x2="22.05771365940052" y1="57.49999999999999" y2="54.99999999999999" /><path d="M 25.521815274538284 56.99999999999999 a86.0,86.0 0 0,1 29.574782752854787,-30.34633250058573" fill="none" id="id23" stroke="none" /><text fill="#e1ed5e" style="font-size:6.75px; font-family:Arial;" text-anchor="middle"><textPath startOffset="21.40746469413373" xlink:href="#id23">November</textPath></text><line stroke="#e1ed5e" stroke-width="0.3" x1="56.869717070023135" x2="54.33264160355391" y1="26.7553504044142" y2="22.446841604673864" /><path d="M 56.362301976729285 25.89364864446614 a86.0,86.0 0 0,1 42.16139366436587,-11.88097634709845" fill="none" id="id24" stroke="none" /><text fill="#e1ed5e" style="font-size:6.75px; font-family:Arial;" text-anchor="middle"><textPath startOffset="22.145653131862474" xlink:href="#id24">December</textPath></text></svg>