<?xml version="1.0" encoding="utf-8" ?>
<svg baseProfile="full" height="200mm" version="1.1" viewBox="0,0,200,200" width="200mm" xmlns="http://www.w3.org/2000/svg" xmlns:ev="http://www.w3.org/2001/xml-events" xmlns:xlink="http://www.w3.org/1999/xlink"><defs /><rect fill="#1a1a1a" height="200" width="200" x="0" y="0" /><text alignment-baseline="middle" fill="#e1ed5e" style="dominant-baseline: central; font-size:9.0px; font-family:Arial;" text-anchor="middle" x="100.0" y="100.0">2020</text><line stroke="#e1ed5e" stroke-width="0.3" x1="100.0" x2="100.0" y1="15.0" y2="10.0" /><path d="M 100.0 14.0 a86.0,86.0 0 0,1 42.35913384403234,11.155469271406648" fill="none" id="id61" stroke="none" /><text fill="#e1ed5e" style="font-size:6.75px; font-family:Arial;" text-anchor="middle"><textPath startOffset="22.145653131862478" xlink:href="#id61">January</textPath></text><path d="M 100.0 79.0 l 0.0 -26.83470306457297 a47.83470306457297,47.83470306457297 0 0,0 0.8211462865249708,0.007048553275921176 l -0.46065336167611604 26.830748909491483" fill="#c1ff1e" stroke="none" /><path d="M 102.51750503828377 79.15144685158666 l 1.5548281295938993 -12.876207357497496 a33.96974195679502,33.96974195679502 0 0,0 0.578330292104815,0.07487643488878301 l -1.775636243589506 12.847619326408315" fill="#ff8a0c" stroke="none" /><path d="M 104.29559338865022 79.4440306129975 l 3.3897862044774087 -16.221354104843794 a37.571752457323214,37.571752457323214 0 0,0 0.6301992042357923,0.13734898340521773 l -3.6677478253323352 16.16077366330486" fill="#ffbb11" stroke="none" /><path d="M 105.69591212413111 79.78721728523813 l 3.678350315583514 -13.053167615188073 a34.56154290021412,34.56154290021412 0 0,0 0.5696729538834648,0.1658234943728897 l -3.9018832818485834 12.988100426512668" fill="#ff920d" stroke="none" /><path d="M 106.38641147887787 79.99465700312896 l 2.928257457873354 -9.172724780050503 a30.628788689660993,30.628788689660993 0 0,0 0.49950779521908995,0.16419813377401038 l -3.085287990740186 9.121105724874472" fill="#ff5b08" stroke="none" /><path d="M 109.71004243097381 81.37971332152246 l 7.640275989914209 -14.651236618810923 a37.52369667061356,37.52369667061356 0 0,0 0.5685933311248511,0.3027439226772426 l -7.8906581368256195 14.517922228411107" fill="#ffbb11" stroke="none" /><path d="M 110.02825361518725 81.54914285379988 l 10.368876811247443 -19.07756546176073 a42.71329340000247,42.71329340000247 0 0,0 0.6412197136830696,0.35567376614795604 l -10.694840713086613 18.896758780179628" fill="#fffe18" stroke="none" /><line stroke="#e1ed5e" stroke-width="0.3" x1="143.13028292997686" x2="145.6673583964461" y1="26.7553504044142" y2="22.446841604673864" /><path d="M 143.63769802327073 25.89364864446614 a86.0,86.0 0 0,1 29.32050498858742,28.57503671076993" fill="none" id="id62" stroke="none" /><text fill="#e1ed5e" style="font-size:6.75px; font-family:Arial;" text-anchor="middle"><textPath startOffset="20.669276256404974" xlink:href="#id62">February</textPath></text><path d="M 110.65571695917076 81.90426304109057 l 5.095601365724621 -8.653445123864122 a31.042273935225147,31.042273935225147 0 0,0 0.4568642873975735,0.27433387780507074 l -5.243398409679629 8.56469724552313" fill="#ff6108" stroke="none" /><path d="M 110.96478420261332 82.08984904055464 l 8.473654174801412 -13.841077274704272 a37.22893204121776,37.22893204121776 0 0,0 0.5421877554787818,0.33836525945177565 l -8.710006059069906 13.69357621841095" fill="#ffb710" stroke="none" /><path d="M 111.8722381534696 82.67804972795209 l 9.295408883084601 -13.562279357080467 a37.44202079013462,37.44202079013462 0 0,0 0.5270497686637095,0.3679216712750717 l -9.526853742922071 13.40071287000027" fill="#ffba11" stroke="none" /><path d="M 112.7482090630111 83.31218511350987 l 6.017935384107638 -7.877670596117964 a30.913286049955197,30.913286049955197 0 0,0 0.41893398992684977,0.32576560446670294 l -6.152279318669714 7.773203940030471" fill="#ff5f08" stroke="none" /><path d="M 113.03279911837588 83.53348406188908 l 3.946434991912205 -4.986191692421262 a27.358966640812003,27.358966640812003 0 0,0 0.36576232420400584,0.2946322374223267 l -4.03144808647147 4.917711161205527" fill="#ff2b04" stroke="none" /><path d="M 113.59037401385872 83.9905735841838 l 4.121134068419899 -4.854685570154422 a27.36802308373303,27.36802308373303 0 0,0 0.3555503950269569,0.3071159629772703 l -4.203863943209716 4.783225474712432" fill="#ff2b04" stroke="none" /><path d="M 113.86319453409587 84.22622945171908 l 9.359894717600943 -10.64984201645503 a35.17839074436958,35.17839074436958 0 0,0 0.4501744710992844,0.4025487879705189 l -9.541334215523602 10.487597698601125" fill="#ff9b0e" stroke="none" /><path d="M 115.16444852881244 85.47280134310134 l 12.00938707269038 -11.50472115231126 a37.63081437134517,37.63081437134517 0 0,0 0.44286839255388893,0.47031088576204644 l -12.20511129898053 11.296868806604719" fill="#ffbc11" stroke="none" /><path d="M 115.41159269507618 85.73525988315684 l 6.567266368742477 -6.078563707314004 a29.948626950649523,29.948626950649523 0 0,0 0.3459812264217374,0.380293974827574 l -6.670645296006092 5.964932156928758" fill="#ff5107" stroke="none" /><path d="M 115.6541949942343 86.00192230759917 l 12.272417711772384 -10.974071593349834 a37.463367936974265,37.463367936974265 0 0,0 0.42456509884992244,0.48307714615097713 l -12.458993874580896 10.761782169387558" fill="#ffba11" stroke="none" /><path d="M 115.8921839302757 86.27271002978787 l 15.025882722857158 -12.978999620191425 a40.85526586933518,40.85526586933518 0 0,0 0.45389312555610595,0.534684960607066 l -15.246470411920376 12.719147877134807" fill="#ffe615" stroke="none" /><path d="M 116.57777611688842 87.10902102172516 l 20.453044821751604 -15.904411362529679 a46.909020499994654,46.909020499994654 0 0,0 0.48885458955572,0.6399263501715816 l -20.72305138866163 15.550964099117214" fill="#ccff1d" stroke="none" /><path d="M 117.81537515405839 88.88188828441811 l 13.976222836603998 -8.722196727012626 a37.47457193747749,37.47457193747749 0 0,0 0.3359007122358974,0.5486685695187935 l -14.123891513295298 8.480991041369279" fill="#ffba11" stroke="none" /><line stroke="#e1ed5e" stroke-width="0.3" x1="172.87174338648825" x2="177.1583165268699" y1="56.24261187166439" y2="53.66864786411523" /><path d="M 173.72905801456457 55.72781907015455 a86.0,86.0 0 0,1 12.242430191666344,42.057860355516425" fill="none" id="id63" stroke="none" /><text fill="#e1ed5e" style="font-size:6.75px; font-family:Arial;" text-anchor="middle"><textPath startOffset="22.145653131862474" xlink:href="#id63">March</textPath></text><path d="M 118.00360718960297 89.18935116829356 l 9.2450196056446 -5.551368642200919 a31.78369516030404,31.78369516030404 0 0,0 0.2768606397162322,0.4701698937553425 l -9.3389539554906 5.39184758015202" fill="#ff6c09" stroke="none" /><path d="M 118.18653347947321 89.5 l 18.888800389602164 -10.905453989605919 a42.810907979211834,42.810907979211834 0 0,0 0.3619899462022938,0.6396015497327314 l -19.07322370082583 10.57959566977407" fill="#ffff18" stroke="none" /><path d="M 118.53625476483649 90.13048839642627 l 7.4836123647159365 -3.9846020680684813 a29.47829627143242,29.47829627143242 0 0,0 0.2339901966101791,0.4487070547639065 l -7.55091063030106 3.8555487702000764" fill="#ff4a06" stroke="none" /><path d="M 119.16976305983485 91.42560881287824 l 17.70673513025575 -7.919997403185023 a40.39728918791207,40.39728918791207 0 0,0 0.27771427700460394,0.6354646141429207 l -17.840083289277324 7.614870719266253" fill="#ffe115" stroke="none" /><path d="M 119.31412917781788 91.75594674310238 l 13.3876104961044 -5.714374844258733 a35.55617376428647,35.55617376428647 0 0,0 0.2347963032512609,0.5634256532100707 l -13.483732643892145 5.483716681607385" fill="#ffa00e" stroke="none" /><path d="M 119.58574465831526 92.42381321644754 l 15.56838835008135 -6.022187060884723 a37.692556808806614,37.692556808806614 0 0,0 0.2282541273648232,0.605471191056864 l -15.669473161260614 5.754047589633701" fill="#ffbd11" stroke="none" /><path d="M 119.83427380445688 93.10060997987247 l 15.635206988649726 -5.4387366093473135 a37.554140070803314,37.554140070803314 0 0,0 0.20657384088053335,0.6106988547972438 l -15.726266251102624 5.169536080075908" fill="#ffbb11" stroke="none" /><path d="M 120.26092885502905 94.47779374421319 l 15.844601946372034 -4.318516718298899 a37.42257584805756,37.42257584805756 0 0,0 0.16360886277307266,0.6212495008200246 l -15.916400289949836 4.045886713106076" fill="#ffb911" stroke="none" /><path d="M 120.35273937422433 94.82641323984039 l 9.333270503364908 -2.372480864484965 a30.63008845968347,30.63008845968347 0 0,0 0.12516398351191632,0.5107117650427132 l -9.372622013393114 2.211913274834157" fill="#ff5b08" stroke="none" /><path d="M 120.51834098615036 95.52812308129327 l 16.393515981103715 -3.5728905071726254 a37.77834654544205,37.77834654544205 0 0,0 0.13266008359672718,0.6348265235012082 l -16.45243377552481 3.2909475323860127" fill="#ffbe11" stroke="none" /><path d="M 120.7213421655516 96.59031103205396 l 16.259900325853337 -2.6755604110014244 a37.478561287915994,37.478561287915994 0 0,0 0.09901212652657891,0.6357288788077362 l -16.303433944518183 2.396043350262247" fill="#ffba11" stroke="none" /><path d="M 120.77682067341334 96.94652285012252 l 10.257562605059256 -1.5075084643756789 a31.367746735278324,31.367746735278324 0 0,0 0.07372239546158645,0.5334185287898325 l -10.281929517076055 1.3312016273857608" fill="#ff6609" stroke="none" /><path d="M 120.82617615685814 97.30363454192243 l 16.568114935152543 -2.1450741835722553 a37.70639924572177,37.70639924572177 0 0,0 0.07759961476477556,0.6426361290711463 l -16.60249663617698 1.860344377577696" fill="#ffbd11" stroke="none" /><path d="M 120.99303781780057 99.45929381324524 l 3.474036057789327 -0.08947884559437308 a24.475188195570034,24.475188195570034 0 0,0 0.007212684584943187,0.42010271749193906 l -3.475060173972936 0.029829212133367634" fill="#ff0000" stroke="none" /><line stroke="#e1ed5e" stroke-width="0.3" x1="184.99686870605535" x2="189.99668451229388" y1="99.2704041080226" y2="99.22748670261217" /><path d="M 185.99683186730306 99.26182062694052 a86.0,86.0 0 0,1 -10.086455211305974,41.156179273409016" fill="none" id="id64" stroke="none" /><text fill="#e1ed5e" style="font-size:6.75px; font-family:Arial;" text-anchor="middle"><textPath startOffset="21.40746469413373" xlink:href="#id64">April</textPath></text><line stroke="#e1ed5e" stroke-width="0.3" x1="174.33088141563837" x2="178.70328620479359" y1="141.23008692659167" y2="143.65538615756765" /><path d="M 175.20536237346943 141.71514677278685 a86.0,86.0 0 0,1 -30.301960400862466,31.631185727798858" fill="none" id="id65" stroke="none" /><text fill="#e1ed5e" style="font-size:6.75px; font-family:Arial;" text-anchor="middle"><textPath startOffset="22.145653131862474" xlink:href="#id65">May</textPath></text><path d="M 113.31354834802062 116.24036423190432 l 2.9555673306763293 3.605311574899345 a25.66193627136455,25.66193627136455 0 0,0 -0.34307470663705714,0.2763566986825731 l -2.8932418536840196 -3.6555165673753214" fill="#ff1202" stroke="none" /><line stroke="#e1ed5e" stroke-width="0.3" x1="143.1302829299769" x2="145.66735839644613" y1="173.24464959558577" y2="177.55315839532614" /><path d="M 143.63769802327073 174.10635135553383 a86.0,86.0 0 0,1 -40.68552437913181,11.842963189579606" fill="none" id="id66" stroke="none" /><text fill="#e1ed5e" style="font-size:6.75px; font-family:Arial;" text-anchor="middle"><textPath startOffset="21.407464694133747" xlink:href="#id66">June</textPath></text><line stroke="#e1ed5e" stroke-width="0.3" x1="101.45913802915013" x2="101.54496967792366" y1="184.9874750549273" y2="189.98673829345242" /><path d="M 101.47630435890484 185.9873277026323 a86.0,86.0 0 0,1 -42.54439059252881,-10.42667462771756" fill="none" id="id67" stroke="none" /><text fill="#e1ed5e" style="font-size:6.75px; font-family:Arial;" text-anchor="middle"><textPath startOffset="22.145653131862474" xlink:href="#id67">July</textPath></text><path d="M 95.00130118170881 120.39639698878247 l -1.91525470233396 7.814892767792322 a29.04616365399717,29.04616365399717 0 0,0 -0.4832655158483811,-0.1228442043335604 l 2.04912551140772 -7.7808633316234985" fill="#ff4406" stroke="none" /><path d="M 93.95794788825049 120.11202640906438 l -2.4068868040782028 8.011743373268057 a29.365472847768405,29.365472847768405 0 0,0 -0.4815369354896549,-0.14918137352719682 l 2.5440643724394914 -7.969245411934212" fill="#ff4906" stroke="none" /><path d="M 93.61358852112213 120.00534299687104 l -5.46734870228697 17.126391939275194 a38.97790874073148,38.97790874073148 0 0,0 -0.6356689275115145,-0.2089570024622686 l 5.760540367446229 -17.030014015410902" fill="#ffce13" stroke="none" /><path d="M 93.27111125876986 119.89276391827306 l -2.739326949179734 8.098333378749494 a29.54908858580086,29.54908858580086 0 0,0 -0.47910924308550107,-0.16665906515580126 l 2.8779419643102573 -8.050115881025102" fill="#ff4b07" stroke="none" /><path d="M 92.59220618246901 119.65005319985036 l -4.800150085425487 12.732968393728177 a34.60771564070513,34.60771564070513 0 0,0 -0.5540987585781725,-0.21433730321509487 l 5.018021106497187 -12.648691202375042" fill="#ff930d" stroke="none" /><path d="M 91.26138138417905 119.09545874513695 l -5.448670071400198 11.906327434397406 a34.093839716525345,34.093839716525345 0 0,0 -0.5300963549953318,-0.24811186027189777 l 5.652255140267019 -11.811039342554981" fill="#ff8c0c" stroke="none" /><path d="M 90.93487009805054 118.94263497670748 l -3.5177614255136533 7.35076842134576 a29.149137490009963,29.149137490009963 0 0,0 -0.4495071151900235,-0.21987645512823706 l 3.6434287899657463 -7.289298216120302" fill="#ff4606" stroke="none" /><path d="M 90.28995756902619 118.62028667847754 l -4.9026814279560424 9.40153808088291 a31.603075189317323,31.603075189317323 0 0,0 -0.47887866575138055,-0.25497591656449464 l 5.063348909493985 -9.315991696595841" fill="#ff6909" stroke="none" /><path d="M 89.97174638481275 118.45085714620012 l -10.868278081802977 19.99640755084555 a43.75908133916903,43.75908133916903 0 0,0 -0.6569192720534701,-0.3643820465287719 l 11.20994154201255 -19.80689258888363" fill="#f3ff19" stroke="none" /><line stroke="#e1ed5e" stroke-width="0.3" x1="58.13341422392154" x2="55.67067388415222" y1="173.97424548756322" y2="178.32567169271397" /><path d="M 57.64086615596768 174.84453072859336 a86.0,86.0 0 0,1 -31.369924170532247,-30.572349798747897" fill="none" id="id68" stroke="none" /><text fill="#e1ed5e" style="font-size:6.75px; font-family:Arial;" text-anchor="middle"><textPath startOffset="22.145653131862474" xlink:href="#id68">August</textPath></text><path d="M 88.4268655584334 117.5232005979908 l -9.234444142389957 13.98212540734435 a37.75633580248452,37.75633580248452 0 0,0 -0.5377647707799543,-0.36183213745994264 l 9.473105201266918 -13.821543595827286" fill="#ffbe11" stroke="none" /><path d="M 88.1277618465304 117.32195027204791 l -8.037002938356606 11.726227475805045 a35.21611153042483,35.21611153042483 0 0,0 -0.49571692562694003,-0.3460489134041874 l 8.23711495515731 -11.586533746595729" fill="#ff9b0e" stroke="none" /><path d="M 87.83215693770417 117.11559508785305 l -10.139915854081302 14.26306150521731 a38.50008048637095,38.50008048637095 0 0,0 -0.535369266864357,-0.38756606270922456 l 10.383266131319612 -14.08689467113502" fill="#ffc812" stroke="none" /><path d="M 86.96720088162412 116.46651593811092 l -10.431006881327484 13.179236440446905 a37.80768210407089,37.80768210407089 0 0,0 -0.5054513154938598,-0.40715580074056995 l 10.655708967176606 -12.998232345912925" fill="#ffbe11" stroke="none" /><path d="M 86.13680546590413 115.77377054828092 l -4.282016851871249 4.872149138437694 a27.4864092953566,27.4864092953566 0 0,0 -0.3517409268909288,-0.3145289057680545 l 4.365022805585549 -4.797924702786257" fill="#ff2d04" stroke="none" /><path d="M 85.86807049272751 115.53346607816431 l -6.682902849692581 7.345680904079367 a30.930771291444863,30.930771291444863 0 0,0 -0.38968386828633067,-0.36068557084347513 l 6.8080164892928785 -7.229877587103514" fill="#ff5f08" stroke="none" /><path d="M 85.60350026404147 115.28858382429668 l -5.776094718599888 6.134012426772163 a29.425519488437068,29.425519488437068 0 0,0 -0.3647748733593603,-0.3494460771368041 l 5.880542077824563 -6.033954219329776" fill="#ff4a06" stroke="none" /><path d="M 85.08716467003676 114.78537596483092 l -9.447266830736885 9.366521445581187 a34.30347979145583,34.30347979145583 0 0,0 -0.41100991818984595,-0.42173238406032576 l 9.60666355007754 -9.202966369453122" fill="#ff8f0d" stroke="none" /><path d="M 84.58840730492382 114.26474011684316 l -13.233119272000003 12.24837763916363 a39.03158896100234,39.03158896100234 0 0,0 -0.45091205817780333,-0.4956313401036766 l 13.441429031019686 -12.019408723502279" fill="#ffcf13" stroke="none" /><path d="M 84.3458050057657 113.99807769240083 l -10.644702101029681 9.518558257231168 a35.27979811187712,35.27979811187712 0 0,0 -0.3998191245905377,-0.45492076999963804 l 10.806532289578811 -9.33442520942023" fill="#ff9c0e" stroke="none" /><path d="M 84.1078160697243 113.72728997021213 l -12.830358285746481 11.08255790285836 a37.954090462505846,37.954090462505846 0 0,0 -0.4216616972402608,-0.4967164190957697 l 13.018714546493856 -10.860674701313036" fill="#ffc011" stroke="none" /><path d="M 82.98947788004972 112.3143062007846 l -29.057516822380787 21.03540132760443 a56.872376460116556,56.872376460116556 0 0,0 -0.5657038453923063,-0.7957333035777413 l 29.41433576630305 -20.533490797317185" fill="#5bff2a" stroke="none" /><path d="M 82.78059297857968 112.02048342749411 l -13.946701623766534 9.735880888821844 a38.00875841628949,38.00875841628949 0 0,0 -0.36888452648317577,-0.5382135483865882 l 14.111775887065034 -9.495032605365207" fill="#ffc112" stroke="none" /><path d="M 82.37810715431573 111.42229804090323 l -37.41976426230642 24.25503910206112 a65.59311246469682,65.59311246469682 0 0,0 -0.6043384196720073,-0.950120373667844 l 37.83062037360432 -23.6091050537146" fill="#35ff67" stroke="none" /><path d="M 82.18462484594161 111.11811171558189 l -6.421616480458646 4.007563624507611 a28.569526037115843,28.569526037115843 0 0,0 -0.25608095431003003,-0.4182889936345806 l 6.489465399224081 -3.8967375147484735" fill="#ff3d05" stroke="none" /><path d="M 81.99639281039703 110.81064883170644 l -14.255807717887516 8.560202931966495 a37.62844334042814,37.62844334042814 0 0,0 -0.32777293018365156,-0.556630093458858 l 14.400654358200937 -8.314221670214078" fill="#ffbc11" stroke="none" /><line stroke="#e1ed5e" stroke-width="0.3" x1="26.387840678322732" x2="22.057713659400548" y1="142.50000000000003" y2="145.00000000000006" /><path d="M 25.521815274538298 143.00000000000003 a86.0,86.0 0 0,1 -11.493303480769221,-40.785679425670985" fill="none" id="id69" stroke="none" /><text fill="#e1ed5e" style="font-size:6.75px; font-family:Arial;" text-anchor="middle"><textPath startOffset="21.40746469413373" xlink:href="#id69">September</textPath></text><path d="M 81.63589988554817 110.18625677009913 l -20.91029455151658 11.598587903173755 a44.91166367233431,44.91166367233431 0 0,0 -0.36817865512879117,-0.6774072566108036 l 21.1063185562607 -11.237925813088363" fill="#e4ff1a" stroke="none" /><path d="M 81.4637452351635 109.86951160357371 l -15.10949733652508 8.044956285877626 a38.11777530534095,38.11777530534095 0 0,0 -0.30256788438220367,-0.58021381337384 l 15.245373289882235 -7.784396229399283" fill="#ffc312" stroke="none" /><path d="M 81.1358732173502 109.22738970284198 l -56.59238034794944 27.68216910852592 a84.0,84.0 0 0,0 -0.6224829681603521,-1.3007499917395813 l 57.0592425740697 -26.706606614721235" fill="#4dd2ff" stroke="none" /><path d="M 80.9802524753101 108.90220220490708 l -14.996879052634792 7.0192966334481826 a37.55828815269541,37.55828815269541 0 0,0 -0.2683012712549814,-0.5862866983623369 l 15.11516478874483 -6.760820952871157" fill="#ffbb11" stroke="none" /><path d="M 80.68587082218212 108.24405325689762 l -21.950654237847612 9.369429027553306 a44.86665920844172,44.86665920844172 0 0,0 -0.29627838448571286,-0.7109602664069704 l 22.10825846686981 -8.991236251705054" fill="#e5ff1a" stroke="none" /><path d="M 80.5471966667186 107.91128576633889 l -15.933394357195104 6.479972774509042 a38.200671582827084,38.200671582827084 0 0,0 -0.24183085225737855,-0.6095717232935246 l 16.04228388441861 -6.205500034001951" fill="#ffc412" stroke="none" /><path d="M 80.41425534168474 107.57618678355246 l -23.560883735287035 9.113855974238573 a46.262177521086286,46.262177521086286 0 0,0 -0.28014902288627214,-0.7431285669119908 l 23.71386344198774 -8.708059127132438" fill="#d4ff1c" stroke="none" /><path d="M 79.94057633289273 106.21446072829308 l -9.500144903005284 2.9431691753751092 a30.94560194120876,30.94560194120876 0 0,0 -0.152847224430714,-0.5087786992642522 l 9.549268447439628 -2.7796528725201335" fill="#ff6008" stroke="none" /><path d="M 79.73907114497094 105.5222062557868 l -9.944716639166076 2.710476742195304 a31.30747656816586,31.30747656816586 0 0,0 -0.1368740799246179,-0.5197331757406801 l 9.989780199895426 -2.5393630620818217" fill="#ff6509" stroke="none" /><path d="M 79.407916724674 104.11899336999214 l -16.280311739371363 3.2565183045965616 a37.6028148757759,37.6028148757759 0 0,0 -0.12117723348911526,-0.63405049023997 l 16.333815265142633 -2.976565249323277" fill="#ffbc11" stroke="none" /><path d="M 79.2786578344484 103.40968896794605 l -9.954199534757835 1.637959745427231 a31.088062277038794,31.088062277038794 0 0,0 -0.08212949083060597,-0.5273302468539188 l 9.98085051772671 -1.4668413166418623" fill="#ff6209" stroke="none" /><path d="M 79.22317932658666 103.0534771498775 l -19.993390758629545 2.938339931295064 a41.208154680205126,41.208154680205126 0 0,0 -0.0968499236242431,-0.7007578016095529 l 20.040885198809 -2.5946938214854254" fill="#ffeb16" stroke="none" /><path d="M 79.17382384314188 102.69636545807758 l -24.978025162028377 3.2339054347097456 a46.18650204684184,46.18650204684184 0 0,0 -0.09505163149658982,-0.7871638630169074 l 25.02985887978463 -2.804647894769439" fill="#d5ff1c" stroke="none" /><path d="M 79.13060592940153 102.33845913500099 l -9.899090287775541 1.109213714271695 a30.961041290420418,30.961041290420418 0 0,0 -0.054650082233915966,-0.528689971055057 l 9.916672762491125 -0.9391192209337066" fill="#ff6008" stroke="none" /><path d="M 79.01933749520258 100.90099992219065 l -13.910321417777034 0.5973690541086677 a34.92314230813839,34.92314230813839 0 0,0 -0.020580229386515624,-0.5991709235884763 l 13.918526334160397 -0.35849186595607146" fill="#ff970e" stroke="none" /><path d="M 79.00696218219943 100.54070618675478 l -17.116267457490107 0.4408543341243715 a38.12194393812371,38.12194393812371 0 0,0 -0.01123429798347131,-0.6543415362738847 l 17.121313187072246 -0.14696588188143447" fill="#ffc312" stroke="none" /><line stroke="#e1ed5e" stroke-width="0.3" x1="15.003131293944662" x2="10.003315487706104" y1="100.72959589197737" y2="100.7725132973878" /><path d="M 14.003168132696942 100.73817937305945 a86.0,86.0 0 0,1 10.791469493833604,-42.45332614584628" fill="none" id="id70" stroke="none" /><text fill="#e1ed5e" style="font-size:6.75px; font-family:Arial;" text-anchor="middle"><textPath startOffset="22.145653131862435" xlink:href="#id70">October</textPath></text><path d="M 79.00077361379809 100.18025310272382 l -13.909501901828435 0.119396344847966 a34.91001432940067,34.91001432940067 0 0,0 0.0,-0.599298895143562 l 13.909501901828435 0.1193963448479609" fill="#ff970d" stroke="none" /><path d="M 79.00077361379809 99.81974689727619 l -16.97195163287639 -0.14568379257602668 a37.97257688143185,37.97257688143185 0 0,0 0.011190280447888286,-0.6517777355006844 l 16.966949920829833 0.4370084440457635" fill="#ffc111" stroke="none" /><path d="M 79.00696218219943 99.45929381324524 l -10.508088992469839 -0.2706510976882204 a31.51157392070025,31.51157392070025 0 0,0 0.018569790023359505,-0.5406391751120175 l 10.501894515449628 0.45099653736437645" fill="#ff6809" stroke="none" /><path d="M 79.01933749520258 99.09900007780938 l -16.657902490530756 -0.7153620074864316 a37.673255776415886,37.673255776415886 0 0,0 0.033293130819350425,-0.6458778435639732 l 16.643167770254834 1.0012116444271169" fill="#ffbd11" stroke="none" /><path d="M 79.13060592940154 97.66154086499901 l -16.815741929786597 -1.8842389575137783 a37.9209790821393,37.9209790821393 0 0,0 0.07804121918670563,-0.6462932471786553 l 16.78091862434022 2.17262588161587" fill="#ffc011" stroke="none" /><path d="M 79.17382384314186 97.30363454192245 l -17.492947081326673 -2.2648122206790924 a38.6389504218656,38.6389504218656 0 0,0 0.09081162275573959,-0.6570676645012458 l 17.451490942015724 2.5647681933804054" fill="#ffca12" stroke="none" /><path d="M 79.22317932658666 96.9465228501225 l -10.746093059771958 -1.5793056177483018 a31.86152485996006,31.86152485996006 0 0,0 0.08417285035381328,-0.5404500808001275 l 10.717398717279877 1.7635438804798793" fill="#ff6d0a" stroke="none" /><path d="M 79.2786578344484 96.59031103205396 l -27.78532370260545 -4.572064441708012 a49.15897701475853,49.15897701475853 0 0,0 0.1441649795880458,-0.8315052919113654 l 27.702743905525168 5.048362766539969" fill="#b1ff20" stroke="none" /><path d="M 79.407916724674 95.88100663000787 l -13.532927019195688 -2.706964415564794 a34.80100612470014,34.80100612470014 0 0,0 0.12220504082145807,-0.5847953590534475 l 13.484464267549862 2.9388762259036505" fill="#ff960d" stroke="none" /><path d="M 79.73907114497095 94.47779374421319 l -42.89813824470091 -11.692078338140691 a65.4629616729103,65.4629616729103 0 0,0 0.30481271931623855,-1.0816728084924105 l 42.69110703331009 12.426759070536114" fill="#35ff65" stroke="none" /><path d="M 80.05021161711548 93.44210830539832 l -16.994728759293125 -5.586504901384942 a38.88937792700302,38.88937792700302 0 0,0 0.21391857602622516,-0.6324122591815728 l 16.896324761694537 5.877418835040676" fill="#ffcd13" stroke="none" /><path d="M 80.16572619554312 93.10060997987247 l -11.04081751910918 -3.840569458523558 a32.6897230615619,32.6897230615619 0 0,0 0.1889152015267495,-0.5284294411899385 l 10.973262147538486 4.029533856094418" fill="#ff780b" stroke="none" /><path d="M 80.41425534168474 92.42381321644754 l -24.513359254699626 -9.482293966651953 a47.28342977657162,47.28342977657162 0 0,0 0.2993296098401575,-0.7545061533705781 l 24.346970969893334 9.901701137236113" fill="#c7ff1e" stroke="none" /><path d="M 80.68587082218212 91.75594674310238 l -31.511471422776044 -13.450373362467236 a55.26201066514047,55.26201066514047 0 0,0 0.37990295007917746,-0.8692922963403084 l 31.27593459067989 13.98932772858341" fill="#6cff28" stroke="none" /><path d="M 81.1358732173502 90.77261029715801 l -17.96144799096897 -8.78584427201979 a40.99511624133419,40.99511624133419 0 0,0 0.31464744731775657,-0.6295056686044529 l 17.80798063043947 9.092881796788014" fill="#ffe815" stroke="none" /><path d="M 81.46374523516351 90.13048839642627 l -10.77254669951582 -5.7357743513863 a33.20437912403864,33.20437912403864 0 0,0 0.2722042037780106,-0.5008250759531182 l 10.672497146122458 5.919854260814038" fill="#ff800b" stroke="none" /><line stroke="#e1ed5e" stroke-width="0.3" x1="26.387840678322718" x2="22.05771365940052" y1="57.49999999999999" y2="54.99999999999999" /><path d="M 25.521815274538284 56.99999999999999 a86.0,86.0 0 0,1 29.574782752854787,-30.34633250058573" fill="none" id="id71" stroke="none" /><text fill="#e1ed5e" style="font-size:6.75px; font-family:Arial;" text-anchor="middle"><textPath startOffset="21.40746469413373" xlink:href="#id71">November</textPath></text><path d="M 81.81346652052679 89.5 l -33.03902779961428 -19.07509159387084 a59.150183187741675,59.150183187741675 0 0,0 0.515243978841785,-0.8749969191663383 l 32.70671011064272 19.639439681330753" fill="#43ff2d" stroke="none" /><path d="M 82.37810715431573 88.57770195909679 l -14.460441424128856 -9.37308342502346 a38.23250008191241,38.23250008191241 0 0,0 0.3617077812017725,-0.5476716821925119 l 14.297409204006355 9.619934985555032" fill="#ffc412" stroke="none" /><path d="M 82.98947788004972 87.6856937992154 l -18.813306918011417 -13.619383367781591 a44.22559193023726,44.22559193023726 0 0,0 0.4504649903137101,-0.6111422736668916 l 18.57673990811389 13.940331950717345" fill="#edff1a" stroke="none" /><path d="M 83.2033758604659 87.39550010848427 l -14.87490187826775 -11.162403680251284 a39.59736437802359,39.59736437802359 0 0,0 0.4126573760053083,-0.5401817516706733 l 14.681092524908134 11.416106345162842" fill="#ffd614" stroke="none" /><path d="M 83.42222388311158 87.10902102172516 l -13.606892680832173 -10.580802049169701 a38.23661510945226,38.23661510945226 0 0,0 0.4073721132677404,-0.5147013573167928 l 13.423254136922871 10.812823350401178" fill="#ffc412" stroke="none" /><path d="M 83.8745106332314 86.54754324733833 l -13.778888712202965 -11.494839026878655 a38.94405468106712,38.94405468106712 0 0,0 0.43265998457948407,-0.5096723739265753 l 13.579534164116367 11.729678183254787" fill="#ffce13" stroke="none" /><path d="M 84.10781606972428 86.27271002978789 l -13.262195611126833 -11.455568699326905 a38.52472215622234,38.52472215622234 0 0,0 0.4365932208214377,-0.49676294098266593 l 13.063591326346803 11.681543918120871" fill="#ffc812" stroke="none" /><path d="M 84.34580500576568 86.00192230759919 l -12.84775873352848 -11.488545082732914 a38.235184147346494,38.235184147346494 0 0,0 0.44171159918480485,-0.4855184239871822 l 12.648649433501808 11.707401082277753" fill="#ffc412" stroke="none" /><path d="M 84.58840730492382 85.73525988315684 l -41.750604251390314 -38.643735994757044 a77.88981707642144,77.88981707642144 0 0,0 0.9166673286564995,-0.973468936907936 l 41.08108108899754 39.354746391609496" fill="#45fff0" stroke="none" /><path d="M 84.83555147118756 85.47280134310135 l -17.54028496328584 -16.80319621752973 a45.29010085854064,45.29010085854064 0 0,0 0.5426470072961999,-0.5568036340780476 l 17.249251154838838 17.101822543675507" fill="#e0ff1b" stroke="none" /><path d="M 85.34317274990677 84.96080404539775 l -9.819123175732761 -10.075285395840494 a35.068637309556635,35.068637309556635 0 0,0 0.4347300559470599,-0.4164615596055709 l 9.6447206339204 10.242359085751634" fill="#ff990e" stroke="none" /><path d="M 85.60350026404147 84.71141617570332 l -12.03379492513088 -12.77947319220438 a38.553551075790224,38.553551075790224 0 0,0 0.4857200868943335,-0.44957526104954626 l 11.812645066922595 12.98416619938629" fill="#ffc812" stroke="none" /><path d="M 86.40962598614128 83.9905735841838 l -22.674143246370537 -26.710083730902276 a56.036343200578756,56.036343200578756 0 0,0 0.7386808579824761,-0.6162338438240917 l 22.21228805422615 27.095379758638252" fill="#64ff29" stroke="none" /><path d="M 88.72937992617638 82.28071324371311 l -21.057370534195282 -33.10568401603557 a60.23517768513338,60.23517768513338 0 0,0 0.8772418116590511,-0.5474637709991178 l 20.48596459374653 33.46228358387622" fill="#38ff2e" stroke="none" /><line stroke="#e1ed5e" stroke-width="0.3" x1="56.869717070023135" x2="54.33264160355391" y1="26.7553504044142" y2="22.446841604673864" /><path d="M 56.362301976729285 25.89364864446614 a86.0,86.0 0 0,1 42.16139366436587,-11.88097634709845" fill="none" id="id72" stroke="none" /><text fill="#e1ed5e" style="font-size:6.75px; font-family:Arial;" text-anchor="middle"><textPath startOffset="22.145653131862474" xlink:href="#id72">December</textPath></text><path d="M 90.28995756902619 81.37971332152246 l -15.498360576936319 -29.720149941716237 a54.51845004069892,54.51845004069892 0 0,0 0.8335423915445935,-0.4256126843473549 l 14.985890963678143 29.98182057773643" fill="#74ff27" stroke="none" /><path d="M 90.61103034731259 81.2157712731953 l -15.286177455219821 -30.58259471476584 a55.190090972094445,55.190090972094445 0 0,0 0.8510831096956037,-0.41630739727062277 l 14.758934096262164 30.840495862133675" fill="#6dff28" stroke="none" /><path d="M 90.93487009805054 81.0573650232925 l -8.898919054809241 -18.595318232148834 a41.61496108409943,41.61496108409943 0 0,0 0.6470359269407544,-0.30284548456748955 l 8.578394413996964 18.745339948286865" fill="#fff016" stroke="none" /><path d="M 91.5904679813234 80.7573450057729 l -9.795220096811317 -22.413380494521487 a45.46029357831121,45.46029357831121 0 0,0 0.7177637534772804,-0.3063706654884212 l 9.409021268163604 22.578225809669313" fill="#deff1b" stroke="none" /><path d="M 92.25597844496254 80.48000691201159 l -5.1691582101470726 -13.029655433636144 a35.01756460020123,35.01756460020123 0 0,0 0.5606607865958256,-0.21687563662074108 l 4.944725161057717 13.116470958394926" fill="#ff990e" stroke="none" /><path d="M 92.93061703081487 80.22567764915836 l -8.548580109850223 -23.911900016028806 a46.39403836082566,46.39403836082566 0 0,0 0.7522334415897042,-0.2616658391871119 l 8.136840896215514 24.055124287784505" fill="#d2ff1c" stroke="none" /><path d="M 93.27111125876988 80.10723608172694 l -13.771216077901922 -40.71215334958086 a63.9782017146373,63.9782017146373 0 0,0 1.0433847320689669,-0.34298128568519165 l 13.070308608185194 40.94255555666808" fill="#33ff53" stroke="none" /><path d="M 96.41257539226777 79.30868818359171 l -2.925947564730139 -16.876088013055956 a38.127857886378,38.127857886378 0 0,0 0.6458541338371415,-0.10627505194658061 l 2.6358159278399245 16.923829063498204" fill="#ffc312" stroke="none" /><path d="M 97.48249496171623 79.15144685158666 l -3.2840062999274875 -27.196283162331756 a48.39384082642836,48.39384082642836 0 0,0 0.8256083691311803,-0.09251113981541292 l 2.816662029195508 27.24865006265414" fill="#baff1f" stroke="none" /></svg>