<?xml version="1.0" encoding="utf-8" ?>
<svg baseProfile="full" height="200mm" version="1.1" viewBox="0,0,200,200" width="200mm" xmlns="http://www.w3.org/2000/svg" xmlns:ev="http://www.w3.org/2001/xml-events" xmlns:xlink="http://www.w3.org/1999/xlink"><defs /><rect fill="#1a1a1a" height="200" width="200" x="0" y="0" /><text alignment-baseline="middle" fill="#e1ed5e" style="dominant-baseline: central; font-size:9.0px; font-family:Arial;" text-anchor="middle" x="100.0" y="100.0">2017</text><line stroke="#e1ed5e" stroke-width="0.3" x1="100.0" x2="100.0" y1="15.0" y2="10.0" /><path d="M 100.0 14.0 a86.0,86.0 0 0,1 42.46469731375804,11.215312516191453" fill="none" id="id25" stroke="none" /><text fill="#e1ed5e" style="font-size:6.75px; font-family:Arial;" text-anchor="middle"><textPath startOffset="22.20632615414155" xlink:href="#id25">January</textPath></text><path d="M 107.08798089147638 80.2323363322302 l 5.200438412091842 -14.503498108862656 a36.40766098639709,36.40766098639709 0 0,0 0.5881010516126727,0.21660258049788636 l -5.449321789477091 14.411832260558445" fill="#ffb110" stroke="none" /><path d="M 108.43124777332544 80.76684994638697 l 6.343078812553232 -14.469671617254814 a36.798925455025454,36.798925455025454 0 0,0 0.5779496969654938,0.2593091821991177 l -6.591210627985506 14.358342104539165" fill="#ffb710" stroke="none" /><path d="M 109.73455568895987 81.39251694778311 l 6.694746245491384 -12.79692481939914 a35.44233056417401,35.44233056417401 0 0,0 0.5381410791889485,0.2874563274969486 l -6.914032371208643 12.679789765400438" fill="#ffa40f" stroke="none" /><line stroke="#e1ed5e" stroke-width="0.3" x1="143.23703022742887" x2="145.7803849466894" y1="26.81831364943548" y2="22.513508569990506" /><path d="M 143.74570117128098 25.957352633546492 a86.0,86.0 0 0,1 28.547481713284135,27.462654790039103" fill="none" id="id26" stroke="none" /><text fill="#e1ed5e" style="font-size:6.75px; font-family:Arial;" text-anchor="middle"><textPath startOffset="19.985693538727396" xlink:href="#id26">February</textPath></text><path d="M 110.99172775467656 82.1063720568725 l 8.217025281551123 -13.376640731007155 a36.698854153220545,36.698854153220545 0 0,0 0.5354202877347809,0.3352801350599682 l -8.446064721658166 13.233216254624244" fill="#ffb510" stroke="none" /><path d="M 113.6212207817346 84.01681056812373 l 9.8275790599942 -11.531716597917503 a36.151296904064765,36.151296904064765 0 0,0 0.47014968435533916,0.4077091733410284 l -10.024622542996305 11.360842431156804" fill="#ffae10" stroke="none" /><line stroke="#e1ed5e" stroke-width="0.3" x1="172.23445277983987" x2="176.4835382374775" y1="55.19839476539836" y2="52.563006222186495" /><path d="M 173.08426987136738 54.67131705675599 a86.0,86.0 0 0,1 12.851231095245387,41.99856678651699" fill="none" id="id27" stroke="none" /><text fill="#e1ed5e" style="font-size:6.75px; font-family:Arial;" text-anchor="middle"><textPath startOffset="22.20632615414155" xlink:href="#id27">March</textPath></text><path d="M 120.28053869075195 94.5502522615342 l 16.620110299386635 -4.466124391382038 a38.20971625109128,38.20971625109128 0 0,0 0.16521820922828545,0.6366531569057627 l -16.694524840485222 4.179374808927424" fill="#ffc912" stroke="none" /><line stroke="#e1ed5e" stroke-width="0.3" x1="184.98032266829074" x2="189.97916517819016" y1="98.17113171792111" y2="98.06355123074" /><path d="M 185.9800911702706 98.14961562048488 a86.0,86.0 0 0,1 -9.607161424134198,41.387399972396054" fill="none" id="id28" stroke="none" /><text fill="#e1ed5e" style="font-size:6.75px; font-family:Arial;" text-anchor="middle"><textPath startOffset="21.466115282336823" xlink:href="#id28">April</textPath></text><path d="M 120.76222939487914 103.15116336523771 l 18.200363220895984 2.7623390882027654 a39.40879514283203,39.40879514283203 0 0,0 -0.10756395239630999,0.6698008342496329 l -18.150117514138383 -3.0752191521456034" fill="#ffd914" stroke="none" /><path d="M 120.70491114924044 103.5080841355445 l 17.656277910908184 2.9915466908098294 a38.907917278972434,38.907917278972434 0 0,0 -0.11756408440587396,0.6593618194099672 l -17.60216738416312 -3.295027260953015" fill="#ffd213" stroke="none" /><path d="M 119.54520255179757 107.68017299344265 l 15.377620434470849 6.042545982895067 a37.52221450599334,37.52221450599334 0 0,0 -0.2413882422396689,0.5991058211331961 l -15.271329577973788 -6.306351171871077" fill="#ffc011" stroke="none" /><path d="M 119.26925614724726 108.34839909993367 l 16.421734430524705 7.114711221415108 a38.89671694671429,38.89671694671429 0 0,0 -0.2714600306297696,0.6120707057149907 l -16.29683331516366 -7.396330263622787" fill="#ffd213" stroke="none" /><line stroke="#e1ed5e" stroke-width="0.3" x1="174.80103733775053" x2="179.2010983576182" y1="140.37084112569926" y2="142.7455964860345" /><path d="M 175.68104954172406 140.8457921977663 a86.0,86.0 0 0,1 -30.038265399797805,32.042727171017184" fill="none" id="id29" stroke="none" /><text fill="#e1ed5e" style="font-size:6.75px; font-family:Arial;" text-anchor="middle"><textPath startOffset="22.206326154141568" xlink:href="#id29">May</textPath></text><path d="M 117.35343817320211 111.8261652097733 l 17.037231644809115 11.610674157921732 a41.617347465673575,41.617347465673575 0 0,0 -0.40852201204248195,0.588506427358603 l -16.8348487256045 -11.902221847467354" fill="#fff517" stroke="none" /><path d="M 117.14729908036423 112.12312394758627 l 14.617137956673071 10.33430246811508 a38.90135552261063,38.90135552261063 0 0,0 -0.39127392335030037,0.5434452577491432 l -14.437084240947168 -10.584381331315354" fill="#ffd213" stroke="none" /><path d="M 116.71984013943494 112.70617746262583 l 13.133749185641815 9.980941594578082 a37.495895331437026,37.495895331437026 0 0,0 -0.3949445918866059,0.5105191240801904 l -12.95999777653714 -10.205538712771524" fill="#ffc011" stroke="none" /><path d="M 115.56566222782051 114.09645910891815 l 13.759924216075465 12.46116009809365 a39.5638364952523,39.5638364952523 0 0,0 -0.4614906601419999,0.5008569660718086 l -13.543387147937743 -12.696168318966794" fill="#ffdb14" stroke="none" /><path d="M 114.55890576462653 115.13401014063108 l 12.389133150854487 12.878527395528492 a38.870285059477354,38.870285059477354 0 0,0 -0.48618242819709884,0.45971583183746073 l -12.16561488826658 -13.089877864111875" fill="#ffd213" stroke="none" /><path d="M 114.0293411484842 115.62618273729858 l 11.96924838935094 13.33160699284317 a38.916323618912585,38.916323618912585 0 0,0 -0.5023127196984873,0.4432325722354468 l -11.737993316745865 -13.535662706850905" fill="#ffd313" stroke="none" /><path d="M 112.63410532772338 116.77436683061366 l 13.33331386881205 17.702709618257114 a43.162201753268754,43.162201753268754 0 0,0 -0.5973135494917188,0.44187828416379427 l -13.026615348901768 -17.929597851160676" fill="#f5ff19" stroke="none" /><path d="M 112.04921762599082 117.19931262002967 l 36.14765287797247 51.597937860089026 a84.0,84.0 0 0,0 -1.1913724615084669,0.8194368425396235 l -35.25412353184112 -52.21251549199374" fill="#4dd2ff" stroke="none" /><path d="M 111.7513745106137 117.40417183066458 l 13.813055685279826 20.45758940250075 a45.684275795047185,45.684275795047185 0 0,0 -0.6555156269899599,0.4344400133943288 l -13.458865359549902 -20.6923274369864" fill="#d7ff1c" stroke="none" /><path d="M 111.45004920935366 117.60387380957326 l 21.50433888145001 33.06183764853135 a60.44010268021735,60.44010268021735 0 0,0 -0.8770094844197295,0.559748947224272 l -20.932047594983352 -33.427101024579436" fill="#34ff2f" stroke="none" /><line stroke="#e1ed5e" stroke-width="0.3" x1="143.8653032363475" x2="146.44561519142675" y1="172.8068346515853" y2="177.08958963109032" /><path d="M 144.38136562736335 173.6633856474863 a86.0,86.0 0 0,1 -40.68145358897372,12.25698825130547" fill="none" id="id30" stroke="none" /><text fill="#e1ed5e" style="font-size:6.75px; font-family:Arial;" text-anchor="middle"><textPath startOffset="21.466115282336833" xlink:href="#id30">June</textPath></text><path d="M 110.8373102113329 117.98757091392108 l 20.672653367884564 34.31209508470811 a61.058438141929095,61.058438141929095 0 0,0 -0.9049213187902109,0.5346434656691287 l -20.078964178065974 -34.66285712267099" fill="#30ff32" stroke="none" /><path d="M 110.5260780823613 118.17145234162733 l 10.553103738933679 18.21810746109003 a42.053917402434166,42.053917402434166 0 0,0 -0.6295095614880584,0.3574519582032705 l -10.237945410524421 -18.39706258508793" fill="#fffb17" stroke="none" /><path d="M 110.21172684928248 118.3499491758327 l 14.027294786363585 25.206328978754513 a49.84655992677017,49.84655992677017 0 0,0 -0.7533410013132958,0.41078157966401846 l -13.591330973181641 -25.4440512101783" fill="#a6ff21" stroke="none" /><path d="M 109.89434966115114 118.52300852407294 l 10.094537542207993 18.897776139350512 a42.42488345835403,42.42488345835403 0 0,0 -0.6470988633792374,0.3385315415390028 l -9.76774777630226 -19.068737099834234" fill="#ffff18" stroke="none" /><path d="M 109.57404056367764 118.69057910512821 l 21.36499387677997 41.70904702968432 a67.86264575842111,67.86264575842111 0 0,0 -1.0442642281496606,0.5236157625640079 l -20.64387574094755 -42.07063063315763" fill="#38ff84" stroke="none" /><path d="M 109.2508944713604 118.85261126421891 l 10.97525922255277 22.366733972308865 a45.9143955092285,45.9143955092285 0 0,0 -0.7125199929945034,0.3420528964060287 l -10.588626561558034 -22.552341145214452" fill="#d4ff1c" stroke="none" /><path d="M 108.59647513512805 119.15986991738527 l 17.425319961540655 38.83764664980478 a63.56764702279373,63.56764702279373 0 0,0 -1.002187318566695,0.43932946888921925 l -16.754211968316206 -39.131840671988456" fill="#33ff51" stroke="none" /><path d="M 108.2653958097858 119.30500536409082 l 7.7239003504733725 18.04026584196403 a40.62421535432122,40.62421535432122 0 0,0 -0.6452064407708376,0.2696963445700018 l -7.412222450205074 -18.170547229554003" fill="#ffe915" stroke="none" /><path d="M 107.93186726928326 119.44442032107085 l 10.449874224211303 25.61713904426561 a48.66654449176972,48.66654449176972 0 0,0 -0.7783841236502979,0.30973510681797467 l -10.00736902451914 -25.793220995489655" fill="#b3ff20" stroke="none" /><path d="M 107.59598834532513 119.57807347666477 l 6.469788102547403 16.675379304403474 a38.88648744269236,38.88648744269236 0 0,0 -0.6261275911621864,0.23674787936927347 l -6.181790290624941 -16.78427543387938" fill="#ffd213" stroke="none" /><path d="M 107.2578585660854 119.70592522655815 l 6.267588347553878 17.017227079193336 a39.13473686490168,39.13473686490168 0 0,0 -0.6341326407156409,0.22737740360194172 l -5.973736146208502 -17.12259202383524" fill="#ffd513" stroke="none" /><path d="M 106.91757812671514 119.82793768551818 l 14.296350444986853 40.97780184929201 a64.40006774701757,64.40006774701757 0 0,0 -1.0498139233665333,0.3561538815093878 l -13.588866788683093 -41.217818717699515" fill="#34ff5b" stroke="none" /><path d="M 106.2309692047433 120.05430185196036 l 5.881725745556652 18.930265844043596 a40.822957969791176,40.822957969791176 0 0,0 -0.6728498747961305,0.20272414780438816 l -5.5550008963202755 -19.02870536095371" fill="#ffeb16" stroke="none" /><line stroke="#e1ed5e" stroke-width="0.3" x1="102.19456741930631" x2="102.32365962044197" y1="184.97166512339345" y2="189.96999836594603" /><path d="M 102.22038585953345 185.97133177190398 a86.0,86.0 0 0,1 -42.740103519485714,-10.115201625700543" fill="none" id="id31" stroke="none" /><text fill="#e1ed5e" style="font-size:6.75px; font-family:Arial;" text-anchor="middle"><textPath startOffset="22.20632615414155" xlink:href="#id31">July</textPath></text><path d="M 100.18074693466247 120.99922214144158 l 0.1324803806730366 15.391602343525658 a36.39217248319703,36.39217248319703 0 0,0 -0.6264546306709735,0.0 l 0.13248038067302603 -15.391602343525658" fill="#ffb110" stroke="none" /><path d="M 99.81925306533755 120.99922214144158 l -0.5141158029469283 59.73009707008395 a80.73230960761931,80.73230960761931 0 0,0 -1.389519572393289,-0.023921839563777525 l 1.542195065232885 -59.71239775324101" fill="#49f1ff" stroke="none" /><path d="M 91.40352486487194 119.15986991738527 l -6.025780943921096 13.430292907427512 a35.72014957680187,35.72014957680187 0 0,0 -0.5588196348549659,-0.2565266859896459 l 6.256068574543482 -13.324579151103793" fill="#ffa80f" stroke="none" /><line stroke="#e1ed5e" stroke-width="0.3" x1="58.666819895761336" x2="56.23545636021788" y1="174.27360380694188" y2="178.64263932499728" /><path d="M 58.180547188652646 175.14741091055294 a86.0,86.0 0 0,1 -31.652253787137756,-30.449443065178592" fill="none" id="id32" stroke="none" /><text fill="#e1ed5e" style="font-size:6.75px; font-family:Arial;" text-anchor="middle"><textPath startOffset="22.20632615414155" xlink:href="#id32">August</textPath></text><path d="M 87.65650970185807 116.9893568818739 l -9.727842383599953 13.389226381980185 a37.54999397426107,37.54999397426107 0 0,0 -0.5196472671244101,-0.38442262520703996 l 9.956874621142926 -13.219793808033378" fill="#ffc111" stroke="none" /><path d="M 82.44556493220864 111.52570212397912 l -15.456981962035366 10.148578928467472 a39.49086113846569,39.49086113846569 0 0,0 -0.3681961215220956,-0.5714485571657718 l 15.629382946934507 -9.881008771380252" fill="#ffda14" stroke="none" /><line stroke="#e1ed5e" stroke-width="0.3" x1="26.63291911575756" x2="22.317208475507996" y1="142.92168965132927" y2="145.44649492493687" /><path d="M 25.769776987707644 143.4266507060508 a86.0,86.0 0 0,1 -11.730757126820373,-40.83630448921669" fill="none" id="id33" stroke="none" /><text fill="#e1ed5e" style="font-size:6.75px; font-family:Arial;" text-anchor="middle"><textPath startOffset="21.46611528233685" xlink:href="#id33">September</textPath></text><path d="M 79.86692584326677 105.97154293290107 l -17.731685744101046 5.259282406119656 a39.495208318774786,39.495208318774786 0 0,0 -0.1877101237109961,-0.653443565892714 l 17.819588504698146 -4.953281364722345" fill="#ffda14" stroke="none" /><path d="M 79.76711848015287 105.62410040840567 l -15.868623942348918 4.410974991745759 a37.470274017195216,37.470274017195216 0 0,0 -0.16738849931209016,-0.6229148759904701 l 15.942200518002783 -4.1371691825797505" fill="#ffc011" stroke="none" /><path d="M 79.67330655649465 105.27499134158121 l -17.372176432626983 4.508263014898181 a38.9476168172217,38.9476168172217 0 0,0 -0.16281714722493185,-0.6503735685532195 l 17.44720489414697 -4.20856160694757" fill="#ffd313" stroke="none" /><path d="M 79.58551787078972 104.9243191809786 l -16.017845099675764 3.8637757922556113 a37.47726084669498,37.47726084669498 0 0,0 -0.14587476628961005,-0.6284246752783054 l 16.081980431895932 -3.5874824596287316" fill="#ffc011" stroke="none" /><path d="M 79.50377843672027 104.57218783832718 l -16.778903710750598 3.742948389287452 a38.19131386426034,38.19131386426034 0 0,0 -0.13760868932932627,-0.6428619842550427 l 16.840846438804363 -3.453572585616246" fill="#ffc912" stroke="none" /><path d="M 79.4281124754447 104.21870165774334 l -21.117448990071072 4.3305806020660285 a42.55691490448585,42.55691490448585 0 0,0 -0.1409851153454257,-0.7188800657477863 l 21.188864038392165 -3.966436809250287" fill="#fdff18" stroke="none" /><path d="M 79.29508885075956 103.50808413554451 l -23.03662489508846 3.903152143394453 a44.36494560685931,44.36494560685931 0 0,0 -0.12109146904961601,-0.7540366933628048 l 23.100398118499367 -3.506036220338435" fill="#e7ff1a" stroke="none" /><path d="M 79.23777060512086 103.15116336523772 l -28.390103519491888 4.308875142666255 a49.715229110048085,49.715229110048085 0 0,0 -0.12112985125441962,-0.8471818975505956 l 28.460067421762908 -3.8195477731352585" fill="#a7ff21" stroke="none" /><path d="M 79.18660465613746 102.79330883721812 l -21.475781750265405 2.8822059043275448 a42.66832510047727,42.66832510047727 0 0,0 -0.09142905868982402,-0.7287795556111485 l 21.52221231820208 -2.512108594428988" fill="#fcff18" stroke="none" /><path d="M 79.10278846688536 102.07522291339032 l -19.719375920416404 1.9582565206347444 a40.816370891041245,40.816370891041245 0 0,0 -0.0634119323249929,-0.6997453891752091 l 19.75016244901847 -1.618529742910969" fill="#ffeb16" stroke="none" /><path d="M 79.07016306316243 101.71520430193888 l -28.980564985437777 2.3749630675886584 a50.0777164930053,50.0777164930053 0 0,0 -0.06301074304652246,-0.8597315266013161 l 29.017152287148633 -1.8757584044905815" fill="#a3ff22" stroke="none" /><path d="M 79.0235259727143 100.99374915477108 l -20.499978014299852 0.9711754128952736 a41.522969577266096,41.522969577266096 0 0,0 -0.0276777624650571,-0.7142400658501961 l 20.51365790961611 -0.6181581000310808" fill="#fff417" stroke="none" /><path d="M 79.0095281055655 100.63252640178507 l -24.726355939682026 0.7451034464799705 a45.737579857411376,45.737579857411376 0 0,0 -0.01694019186049578,-0.7871441505514637 l 24.73551819422753 -0.31936948013837785" fill="#d6ff1c" stroke="none" /><line stroke="#e1ed5e" stroke-width="0.3" x1="15.007084014347285" x2="10.007500721073583" y1="101.09737516637583" y2="101.16192664675087" /><path d="M 14.007167355692545 101.11028546245083 a86.0,86.0 0 0,1 10.666146001902534,-42.60595125391555" fill="none" id="id34" stroke="none" /><text fill="#e1ed5e" style="font-size:6.75px; font-family:Arial;" text-anchor="middle"><textPath startOffset="22.20632615414155" xlink:href="#id34">October</textPath></text><path d="M 79.05617556472873 98.46500227214037 l -20.829729952817114 -1.5266356079483574 a41.88559949311349,41.88559949311349 0 0,0 0.05889018788399939,-0.7186094555608439 l 20.80036528111362 1.8849589807169798" fill="#fff917" stroke="none" /><path d="M 79.26566170972629 96.67025291283419 l -2.897309952538489 -0.4652817582129935 a23.934432155563382,23.934432155563382 0 0,0 0.06882646683071374,-0.40621770327778195 l 2.8888716241875523 0.5150852498066034" fill="#ff0000" stroke="none" /><path d="M 79.54389044137918 95.25157060432595 l -20.828969180631404 -4.8349804372854175 a42.382773275621325,42.382773275621325 0 0,0 0.17107947655977118,-0.7092348786802274 l 20.74265690381082 5.192800547625041" fill="#ffff18" stroke="none" /><path d="M 79.62865764111835 94.90015583598534 l -15.995050475641749 -4.004265569949389 a37.48865617547438,37.48865617547438 0 0,0 0.16210035685647278,-0.6246387998651498 l 15.92375378691497 4.2790007953634035" fill="#ffc011" stroke="none" /><path d="M 80.2630227832202 92.82701384747504 l -18.90217831980503 -6.86959618240064 a41.11178005406187,41.11178005406187 0 0,0 0.24744477892208233,-0.6630289857071127 l 18.781128952381323 7.193948305137094" fill="#ffef16" stroke="none" /><path d="M 80.38941819471856 92.48833698450439 l -14.641060666444092 -5.608131110426143 a36.67838614112517,36.67838614112517 0 0,0 0.23091043941841607,-0.5876418817142384 l 14.542356677143985 5.859321997036146" fill="#ffb510" stroke="none" /><path d="M 80.52162464483688 92.15188598940014 l -17.30356283059017 -6.971851163554717 a39.65529402820928,39.65529402820928 0 0,0 0.26055097981162256,-0.6309448643321747 l 17.180990163892346 7.268670598340203" fill="#ffdc14" stroke="none" /><path d="M 80.65960295795068 91.81776055985345 l -18.563880140355167 -7.85372254335438 a41.15685004293741,41.15685004293741 0 0,0 0.2816486526086557,-0.6500839221601618 l 18.42594077790383 8.172105610101141" fill="#ffef16" stroke="none" /><path d="M 80.95270993114464 91.15688171328213 l -19.650923469591575 -9.123368209159722 a42.665517318717576,42.665517318717576 0 0,0 0.31499708884619065,-0.6634642033832119 l 19.490968186903633 9.460274828183467" fill="#fcff18" stroke="none" /><path d="M 81.6062741919709 89.86733742301443 l -19.06423569205044 -10.502030397308094 a42.765516878494594,42.765516878494594 0 0,0 0.3607421205335667,-0.6417199797417116 l 18.88063593022444 10.828633886984589" fill="#faff18" stroke="none" /><line stroke="#e1ed5e" stroke-width="0.3" x1="26.266209847984243" x2="21.928928074336255" y1="57.711370442889674" y2="55.22380399835377" /><path d="M 25.398753493254645 57.213857153982495 a86.0,86.0 0 0,1 29.58750427330803,-30.492523968695096" fill="none" id="id35" stroke="none" /><text fill="#e1ed5e" style="font-size:6.75px; font-family:Arial;" text-anchor="middle"><textPath startOffset="21.46611528233685" xlink:href="#id35">November</textPath></text><path d="M 82.7489923806493 88.02491185347247 l -16.57274539735155 -11.50426058247331 a41.174337698048134,41.174337698048134 0 0,0 0.4091697459769562,-0.5787415883263684 l 16.372263031570714 11.787828671131466" fill="#fff016" stroke="none" /><path d="M 83.39014120810768 87.1503855733568 l -15.968452480366214 -12.353413712525821 a41.18906399441378,41.18906399441378 0 0,0 0.43865552792878254,-0.5570479743032465 l 15.753442871843461 12.626454080782114" fill="#fff016" stroke="none" /><line stroke="#e1ed5e" stroke-width="0.3" x1="56.762969772571076" x2="54.21961505331055" y1="26.818313649435495" y2="22.513508569990535" /><path d="M 56.25429882871897 25.957352633546506 a86.0,86.0 0 0,1 42.265352541879196,-11.944610805530505" fill="none" id="id36" stroke="none" /><text fill="#e1ed5e" style="font-size:6.75px; font-family:Arial;" text-anchor="middle"><textPath startOffset="22.20632615414155" xlink:href="#id36">December</textPath></text></svg>