<?xml version="1.0" encoding="utf-8" ?>
<svg baseProfile="full" height="200mm" version="1.1" viewBox="0,0,200,200" width="200mm" xmlns="http://www.w3.org/2000/svg" xmlns:ev="http://www.w3.org/2001/xml-events" xmlns:xlink="http://www.w3.org/1999/xlink"><defs /><rect fill="#1a1a1a" height="200" width="200" x="0" y="0" /><text alignment-baseline="middle" fill="#e1ed5e" style="dominant-baseline: central; font-size:9.0px; font-family:Arial;" text-anchor="middle" x="100.0" y="100.0">2018</text><line stroke="#e1ed5e" stroke-width="0.3" x1="100.0" x2="100.0" y1="15.0" y2="10.0" /><path d="M 100.0 14.0 a86.0,86.0 0 0,1 42.46469731375804,11.215312516191453" fill="none" id="id37" stroke="none" /><text fill="#e1ed5e" style="font-size:6.75px; font-family:Arial;" text-anchor="middle"><textPath startOffset="22.20632615414155" xlink:href="#id37">January</textPath></text><line stroke="#e1ed5e" stroke-width="0.3" x1="143.23703022742887" x2="145.7803849466894" y1="26.81831364943548" y2="22.513508569990506" /><path d="M 143.74570117128098 25.957352633546492 a86.0,86.0 0 0,1 28.547481713284135,27.462654790039103" fill="none" id="id38" stroke="none" /><text fill="#e1ed5e" style="font-size:6.75px; font-family:Arial;" text-anchor="middle"><textPath startOffset="19.985693538727396" xlink:href="#id38">February</textPath></text><path d="M 115.4437574822437 85.77008943001954 l 26.050909661860274 -24.003362859143756 a56.42331608923884,56.42331608923884 0 0,0 0.651975069837398,0.7199271561486075 l -26.460228372313708 23.5513829157256" fill="#5cff2a" stroke="none" /><path d="M 117.04232023915458 87.72973835380427 l 30.522037091491217 -21.975492528713737 a58.610065409327845,58.610065409327845 0 0,0 0.5824371906378901,0.823816101078753 l -30.89578690193299 21.446849927303187" fill="#45ff2d" stroke="none" /><line stroke="#e1ed5e" stroke-width="0.3" x1="172.23445277983987" x2="176.4835382374775" y1="55.19839476539836" y2="52.563006222186495" /><path d="M 173.08426987136738 54.67131705675599 a86.0,86.0 0 0,1 12.851231095245387,41.99856678651699" fill="none" id="id39" stroke="none" /><text fill="#e1ed5e" style="font-size:6.75px; font-family:Arial;" text-anchor="middle"><textPath startOffset="22.20632615414155" xlink:href="#id39">March</textPath></text><path d="M 120.98425023603335 99.18683210126433 l 36.85339981546817 -1.4281187725139597 a57.881060196083794,57.881060196083794 0 0,0 0.030010793745055286,0.9959121403588435 l -36.87252230366887 0.7935364847301172" fill="#4cff2c" stroke="none" /><line stroke="#e1ed5e" stroke-width="0.3" x1="184.98032266829074" x2="189.97916517819016" y1="98.17113171792111" y2="98.06355123074" /><path d="M 185.9800911702706 98.14961562048488 a86.0,86.0 0 0,1 -9.607161424134198,41.387399972396054" fill="none" id="id40" stroke="none" /><text fill="#e1ed5e" style="font-size:6.75px; font-family:Arial;" text-anchor="middle"><textPath startOffset="21.466115282336823" xlink:href="#id40">April</textPath></text><path d="M 120.8583938346157 102.4346265915055 l 6.031184499593123 0.7039699354327489 a27.072129786008,27.072129786008 0 0,0 -0.05800976104018135,0.4623948718032598 l -6.018173229306094 -0.8076825615234037" fill="#ff3304" stroke="none" /><path d="M 120.5718875245553 104.21870165774334 l 36.28455703117474 7.440917646238616 a58.039658939664626,58.039658939664626 0 0,0 -0.2091250755131045,0.9769627314747737 l -36.151097916937196 -8.064394197129559" fill="#4bff2c" stroke="none" /><path d="M 120.41448212921028 104.9243191809786 l 35.86282926204511 8.6507224088021 a57.89142882666311,57.89142882666311 0 0,0 -0.24201011667970387,0.9667101155722775 l -35.708607831070346 -9.266760363771773" fill="#4cff2c" stroke="none" /><path d="M 119.67450827220406 107.3425965602758 l 59.02352481661219 22.027789680827375 a84.0,84.0 0 0,0 -0.517222881625973,1.3503057326674246 l -58.635607655392704 -23.040518980327946" fill="#4dd2ff" stroke="none" /><path d="M 119.54520255179757 107.68017299344265 l 32.502284075708324 12.771582372805767 a55.921508937092135,55.921508937092135 0 0,0 -0.3597547459134767,0.8928817760852736 l -32.27762671553745 -13.329163516733853" fill="#61ff29" stroke="none" /><path d="M 119.26925614724726 108.34839909993367 l 33.99676497274376 14.729087616579108 a58.05031782088841,58.05031782088841 0 0,0 -0.40513293384925064,0.9134678138590834 l -33.738190954163244 -15.312103766930878" fill="#4bff2c" stroke="none" /><line stroke="#e1ed5e" stroke-width="0.3" x1="174.80103733775053" x2="179.2010983576182" y1="140.37084112569926" y2="142.7455964860345" /><path d="M 175.68104954172406 140.8457921977663 a86.0,86.0 0 0,1 -30.038265399797805,32.042727171017184" fill="none" id="id41" stroke="none" /><text fill="#e1ed5e" style="font-size:6.75px; font-family:Arial;" text-anchor="middle"><textPath startOffset="22.206326154141568" xlink:href="#id41">May</textPath></text><path d="M 113.75828350139079 115.86535959552629 l 2.3541812441308747 2.7147232419948444 a24.59331206699955,24.59331206699955 0 0,0 -0.3222128188069464,0.27459675444509907 l -2.307102948746881 -2.75484438666289" fill="#ff0e01" stroke="none" /><path d="M 113.20401910651253 116.32954008644616 l 26.6460758245901 32.95346362453517 a63.37858093074103,63.37858093074103 0 0,0 -0.8542301168882486,0.6786520680859569 l -26.0748882149845 -33.40724960662625" fill="#33ff50" stroke="none" /><path d="M 112.92097659922987 116.55440617244103 l 22.69231361591524 29.073481691210944 a57.88100371318858,57.88100371318858 0 0,0 -0.7906855776797723,0.606263984402158 l -22.18849930974197 -29.459785017440474" fill="#4cff2c" stroke="none" /><path d="M 111.7513745106137 117.40417183066458 l 21.752096192946546 32.21556929168243 a59.87153963473008,59.87153963473008 0 0,0 -0.859086177016058,0.5693554735888171 l -21.19433531719052 -32.585222786362564" fill="#38ff2e" stroke="none" /><path d="M 111.1453310114006 117.79835938074945 l 19.390957205353445 30.96608119799957 a57.536384688430125,57.536384688430125 0 0,0 -0.8439239640348909,0.518407026669052 l -18.855054041386246 -31.295276691497" fill="#50ff2b" stroke="none" /><line stroke="#e1ed5e" stroke-width="0.3" x1="143.8653032363475" x2="146.44561519142675" y1="172.8068346515853" y2="177.08958963109032" /><path d="M 144.38136562736335 173.6633856474863 a86.0,86.0 0 0,1 -40.68145358897372,12.25698825130547" fill="none" id="id42" stroke="none" /><text fill="#e1ed5e" style="font-size:6.75px; font-family:Arial;" text-anchor="middle"><textPath startOffset="21.466115282336833" xlink:href="#id42">June</textPath></text><path d="M 110.8373102113329 117.98757091392108 l 18.68235739327612 31.008637927458587 a57.20174172448505,57.20174172448505 0 0,0 -0.8477628503712433,0.5008732350277386 l -18.145826671876495 -31.325629734780076" fill="#53ff2b" stroke="none" /><path d="M 109.89434966115114 118.52300852407294 l 17.17168807542716 32.14676411151345 a57.44559389282958,57.44559389282958 0 0,0 -0.8762069682686523,0.45839007369939433 l -16.615790204632013 -32.43758360415756" fill="#51ff2b" stroke="none" /><path d="M 109.57404056367764 118.69057910512821 l 18.014889863959393 35.168925996608365 a60.51442284236862,60.51442284236862 0 0,0 -0.931190441444977,0.4669182185369731 l -17.406845514831655 -35.47381205605464" fill="#32ff2f" stroke="none" /><path d="M 108.92500713936063 119.00905698771935 l 14.259481155242797 30.370764489353522 a54.551693526325934,54.551693526325934 0 0,0 -0.85342748611835,0.39176670090204396 l -13.734585673357028 -30.611718260589644" fill="#70ff27" stroke="none" /><path d="M 107.59598834532513 119.57807347666477 l 13.041424475190357 33.613264661311504 a57.05454636427238,57.05454636427238 0 0,0 -0.9186591031797184,0.3473582662878374 l -12.460895151250364 -33.83277117770597" fill="#55ff2b" stroke="none" /><path d="M 107.2578585660854 119.70592522655815 l 11.680485835082933 31.713869646286433 a54.79649800327278,54.79649800327278 0 0,0 -0.8879131626907392,0.3183740697037251 l -11.13285311176246 -31.91023125703012" fill="#6dff28" stroke="none" /><path d="M 106.57524785965236 119.94407469862006 l 11.352876544685314 34.43560192472904 a57.258771156194314,57.258771156194314 0 0,0 -0.9387129864476305,0.3005462546814572 l -10.758442213146743 -34.62592102607021" fill="#53ff2b" stroke="none" /><path d="M 106.2309692047433 120.05430185196036 l 13.536374622264763 43.56666414744329 a66.62113175766702,66.62113175766702 0 0,0 -1.0980590920210593,0.33083619690986327 l -12.784440555803457 -43.79321571345888" fill="#37ff76" stroke="none" /><path d="M 105.18746579009965 120.34920634021253 l 8.951983042148886 35.116520754013806 a57.23959202659439,57.23959202659439 0 0,0 -0.9568462268368878,0.23516952260346896 l -8.346183530568787 -35.2654115349313" fill="#53ff2b" stroke="none" /><path d="M 104.83641907484287 120.43548508189849 l 7.445836831358592 31.46114617754097 a53.330236697615085,53.330236697615085 0 0,0 -0.895134945905651,0.2037297993789489 l -6.903181736060079 -31.584652710497608" fill="#7dff26" stroke="none" /><path d="M 104.13013068566511 120.58985236759428 l 6.407175142076497 31.94155350254502 a53.57782579389222,53.57782579389222 0 0,0 -0.9058030141746296,0.17359930349591124 l -5.856404513330163 -32.047110004389395" fill="#7aff26" stroke="none" /><path d="M 103.7750983002368 120.6578951692458 l 5.625571966012029 30.783960230554676 a52.29375764303725,52.29375764303725 0 0,0 -0.8868797890551937,0.15419541941594592 l -5.0948432054847865 -30.87623422849163" fill="#88ff25" stroke="none" /><path d="M 102.70371172650421 120.8252237178851 l 4.013672293924561 30.915138855919718 a52.174595037687574,52.174595037687574 0 0,0 -0.8916205415440764,0.10796283053960204 l -3.4809243293291043 -30.97964721518467" fill="#89ff24" stroke="none" /><path d="M 101.98527174616119 120.90594882070398 l 3.2081239307336946 33.78322128246757 a54.935204425126365,54.935204425126365 0 0,0 -0.9421536204637745,0.08129297874929907 l -2.6261259925283786 -33.83343851349554" fill="#6bff28" stroke="none" /><path d="M 101.26447882468166 120.96189622390904 l 1.8143257958825976 30.07698374010082 a51.13165659229333,51.13165659229333 0 0,0 -0.8790065767429741,0.04543459964671081 l -1.296331150726144 -30.103758146509737" fill="#95ff23" stroke="none" /><line stroke="#e1ed5e" stroke-width="0.3" x1="102.19456741930631" x2="102.32365962044197" y1="184.97166512339345" y2="189.96999836594603" /><path d="M 102.22038585953345 185.97133177190398 a86.0,86.0 0 0,1 -42.740103519485714,-10.115201625700543" fill="none" id="id43" stroke="none" /><text fill="#e1ed5e" style="font-size:6.75px; font-family:Arial;" text-anchor="middle"><textPath startOffset="22.20632615414155" xlink:href="#id43">July</textPath></text><path d="M 98.37488393609728 120.93702456842531 l -2.311365946407219 29.77825810812148 a50.86782664493876,50.86782664493876 0 0,0 -0.8723969909672811,-0.0752740832357524 l 2.823607255116042 -29.734059772607065" fill="#98ff23" stroke="none" /><path d="M 98.01472825383883 120.90594882070398 l -2.893226301397485 30.467184706924197 a51.604249744062244,51.604249744062244 0 0,0 -0.8835812421232827,-0.09158680849180224 l 3.4172401401263612 -30.412868529976635" fill="#90ff24" stroke="none" /><path d="M 97.2962882734958 120.8252237178851 l -3.238812046160232 24.946811000696886 a46.15617782125981,46.15617782125981 0 0,0 -0.7870098865661735,-0.10907239902764813 l 3.6677505239132366 -24.887364036176635" fill="#cfff1d" stroke="none" /><path d="M 96.58105272829116 120.7198165907248 l -4.365317936064812 26.455098545657467 a47.81283721920112,47.81283721920112 0 0,0 -0.8108852929741872,-0.1409828021693655 l 4.82005220051105 -26.376037164967094" fill="#bbff1f" stroke="none" /><path d="M 96.22490169976321 120.6578951692458 l -5.645697019466522 30.894087493866667 a52.40570866760217,52.40570866760217 0 0,0 -0.8859868456342664,-0.16980148763226757 l 6.176651479672483 -30.79232880788593" fill="#87ff25" stroke="none" /><path d="M 95.86986931433489 120.58985236759428 l -5.900545513628131 29.415863627644374 a51.00182444983252,51.00182444983252 0 0,0 -0.8592800463347721,-0.18007048833285455 l 6.40601702139229 -29.30993715858498" fill="#97ff23" stroke="none" /><path d="M 95.51606077576429 120.51570834832081 l -6.729274189633067 30.788960279435205 a52.51576123478379,52.51576123478379 0 0,0 -0.8814641749788897,-0.20061837642422145 l 7.25825851400482 -30.668565169433297" fill="#86ff25" stroke="none" /><path d="M 95.16358092515715 120.4354850818985 l -6.135320551294358 25.923777418464308 a47.639902287906665,47.639902287906665 0 0,0 -0.7963729149201926,-0.19572908683062631 l 6.580646750957761 -25.81432707331965" fill="#bdff1f" stroke="none" /><path d="M 94.81253420990036 120.34920634021253 l -7.698296531078596 30.198603888248815 a52.16439388596822,52.16439388596822 0 0,0 -0.8681882956234195,-0.22929641971477246 l 8.216975269513505 -30.06161611923046" fill="#8aff24" stroke="none" /><path d="M 94.46302465271185 120.25689768951611 l -9.012548848276383 32.97220386410364 a55.18175338391199,55.18175338391199 0 0,0 -0.9140958138857491,-0.25833260766040567 l 9.578775830266746 -32.81218246310471" fill="#69ff28" stroke="none" /><path d="M 94.11515582081647 120.15858648285463 l -8.698191687042373 29.795733587633922 a52.039398812634715,52.039398812634715 0 0,0 -0.8577208687684491,-0.2584242617683597 l 9.209787530251067 -29.641593956759838" fill="#8bff24" stroke="none" /><path d="M 93.42475214034765 119.94407469862007 l -9.72087535140909 29.48540774168292 a52.0464923508426,52.0464923508426 0 0,0 -0.8484328393402182,-0.2878344840026927 l 10.226977923686533 -29.313710270782103" fill="#8bff24" stroke="none" /><path d="M 93.08242187328487 119.8279376855182 l -2.0611178110875374 5.907806861324421 a27.257027132903787,27.257027132903787 0 0,0 -0.4416682461291411,-0.15836651925838952 l 2.162505617846405 -5.871452801026073" fill="#ff3505" stroke="none" /><path d="M 92.40401165467489 119.57807347666478 l -11.264785373489444 29.034114550316044 a52.14281935264782,52.14281935264782 0 0,0 -0.8339844788719584,-0.33185963562122867 l 11.76289092840326 -28.83590807028875" fill="#8aff24" stroke="none" /><path d="M 92.06813273071674 119.44442032107085 l -2.367208032246565 5.803045664249566 a27.267297092790347,27.267297092790347 0 0,0 -0.43306770489559304,-0.18102233576918936 l 2.466747196639621 -5.761438285460403" fill="#ff3505" stroke="none" /><path d="M 91.7346041902142 119.30500536409082 l -11.219759911832401 26.205342159814723 a49.50619178691051,49.50619178691051 0 0,0 -0.7804988846226049,-0.3421477742706561 l 11.669179471112749 -26.008329832249615" fill="#a8ff21" stroke="none" /><path d="M 91.40352486487194 119.15986991738527 l -12.730255883883066 28.37326263569711 a52.09825473339919,52.09825473339919 0 0,0 -0.8150449545039601,-0.37414716318217184 l 13.216768834154445 -28.149928402180862" fill="#8aff24" stroke="none" /><path d="M 91.07499286063937 119.00905698771935 l -1.381579371019776 2.9425770295410385 a24.250772390249733,24.250772390249733 0 0,0 -0.37633426253294655,-0.1806633158112884 l 1.4320263015529644 -2.9183594372301878" fill="#ff0901" stroke="none" /><path d="M 90.7491055286396 118.85261126421891 l -3.887327300063372 7.922073986657779 a29.82443028120784,29.82443028120784 0 0,0 -0.45893562385525055,-0.2301198491482903 l 4.023116831601383 -7.853986296600186" fill="#ff5a08" stroke="none" /><path d="M 90.42595943632237 118.69057910512821 l -2.864460604755543 5.592041016603069 a27.282997476329875,27.282997476329875 0 0,0 -0.4161424903816724,-0.21770608285897253 l 2.9602939976637113 -5.54190551479938" fill="#ff3605" stroke="none" /><path d="M 90.10565033884886 118.52300852407294 l -2.9706316252981697 5.561258374901303 a27.30493829990679,27.30493829990679 0 0,0 -0.4126649780821276,-0.2250178488534132 l 3.065919415248938 -5.509299874288124" fill="#ff3605" stroke="none" /><line stroke="#e1ed5e" stroke-width="0.3" x1="58.666819895761336" x2="56.23545636021788" y1="174.27360380694188" y2="178.64263932499728" /><path d="M 58.180547188652646 175.14741091055294 a86.0,86.0 0 0,1 -31.652253787137756,-30.449443065178592" fill="none" id="id44" stroke="none" /><text fill="#e1ed5e" style="font-size:6.75px; font-family:Arial;" text-anchor="middle"><textPath startOffset="22.20632615414155" xlink:href="#id44">August</textPath></text><path d="M 89.7882731507175 118.34994917583269 l -4.559501232890865 8.193189763646346 a30.37642842429102,30.37642842429102 0 0,0 -0.45470798722407485,-0.25819506229532707 l 4.699857987036147 -8.113491535556387" fill="#ff6209" stroke="none" /><path d="M 89.4739219176387 118.17145234162733 l -4.733324470962139 8.171265628902896 a30.44319556747073,30.44319556747073 0 0,0 -0.4511857413887256,-0.2665684888041483 l 4.873278083379247 -8.088578567804998" fill="#ff6309" stroke="none" /><path d="M 89.1626897886671 117.98757091392108 l -3.2688466264943945 5.425572337987715 a27.334208195369115,27.334208195369115 0 0,0 -0.400928794169259,-0.246283211460862 l 3.361754620595962 -5.368500659698475" fill="#ff3605" stroke="none" /><path d="M 88.8546689885994 117.79835938074946 l -2.251222452184283 3.5950539476128767 a25.241746741080323,25.241746741080323 0 0,0 -0.36626759905380657,-0.23376931106780408 l 2.312771853285013 -3.555770207721268" fill="#ff1802" stroke="none" /><path d="M 88.54995079064634 117.60387380957326 l -3.43673662085675 5.283809412878193 a27.30315797935908,27.30315797935908 0 0,0 -0.39176820492765674,-0.25964260375877946 l 3.5271795245243682 -5.223868788028095" fill="#ff3605" stroke="none" /><path d="M 88.24862548938628 117.40417183066458 l -3.5402859167469707 5.243279785619588 a27.326579429881832,27.326579429881832 0 0,0 -0.387573026190288,-0.26657626149321223 l 3.630015827560149 -5.1815627347612745" fill="#ff3605" stroke="none" /><path d="M 87.95078237400918 117.19931262002967 l -2.4114801018806276 3.4421986087926877 a25.202852310531565,25.202852310531565 0 0,0 -0.35316717596428465,-0.25197540288041803 l 2.470374605693799 -3.4001789440680503" fill="#ff1702" stroke="none" /><path d="M 87.36589467227662 116.77436683061367 l -4.180439398514749 5.550390958824826 a27.94859074636424,27.94859074636424 0 0,0 -0.3817927506773657,-0.2927424007413259 l 4.275360877685602 -5.477609216256133" fill="#ff3f05" stroke="none" /><path d="M 87.07902340077011 116.55440617244103 l -2.5792953647994272 3.3046033927597325 a25.192036278745086,25.192036278745086 0 0,0 -0.3395436719948231,-0.26975402839248386 l 2.6357965295116084 -3.2597154503621177" fill="#ff1702" stroke="none" /><path d="M 86.79598089348748 116.32954008644616 l -3.55940697049739 4.401953552160887 a26.6609692683327,26.6609692683327 0 0,0 -0.35437490117827186,-0.2916264179492724 l 3.634652000220351 -4.340032015354434" fill="#ff2d04" stroke="none" /><path d="M 85.97065885151581 115.62618273729859 l -4.211740468669026 4.691127367204171 a27.304397968938535,27.304397968938535 0 0,0 -0.3470264818783807,-0.3170004632774294 l 4.291866500014261 -4.617934137340165" fill="#ff3605" stroke="none" /><path d="M 85.70375840098266 115.38237550388516 l -4.203350447434456 4.522693220384915 a27.17437518698557,27.17437518698557 0 0,0 -0.33989212306859296,-0.32138921735800174 l 4.280578404893866 -4.4496693662809825" fill="#ff3405" stroke="none" /><path d="M 85.44109423537348 115.13401014063109 l -4.3601326708159975 4.532366176512509 a27.28912554057491,27.28912554057491 0 0,0 -0.3357212801443075,-0.3285739325841639 l 4.4375039033361 -4.4566421410057755" fill="#ff3605" stroke="none" /><path d="M 85.18274418774928 114.88116024355367 l -7.208814515712152 7.239904968481014 a31.216811179354266,31.216811179354266 0 0,0 -0.3775143740413453,-0.38242006778569254 l 7.332369514809031 -7.114744406714657" fill="#ff6e0a" stroke="none" /><path d="M 83.72743513129214 113.27417163493432 l -23.703163808268506 19.33560365071718 a51.589304389920954,51.589304389920954 0 0,0 -0.555400840576698,-0.6929479454026478 l 24.032482560900064 -18.924727871736273" fill="#90ff24" stroke="none" /><path d="M 83.06392112726016 112.41649034213515 l -25.209613486066193 18.482136551839446 a52.25882249282097,52.25882249282097 0 0,0 -0.5256247303399961,-0.7300467780041834 l 25.524018008781795 -18.045456168384128" fill="#89ff25" stroke="none" /><path d="M 82.6465618267979 111.8261652097733 l -28.555299585433826 19.46010278432324 a55.55576268569835,55.55576268569835 0 0,0 -0.5317397988744661,-0.7948788519140019 l 28.88604248971902 -18.96568701820342" fill="#65ff29" stroke="none" /><path d="M 82.05923443525364 110.91462005526583 l -26.108506843915332 15.883627227792278 a51.56049318205186,51.56049318205186 0 0,0 -0.4547613997974729,-0.7622062638874106 l 26.37804911941104 -15.431858870018756" fill="#90ff24" stroke="none" /><line stroke="#e1ed5e" stroke-width="0.3" x1="26.63291911575756" x2="22.317208475507996" y1="142.92168965132927" y2="145.44649492493687" /><path d="M 25.769776987707644 143.4266507060508 a86.0,86.0 0 0,1 -11.730757126820373,-40.83630448921669" fill="none" id="id45" stroke="none" /><text fill="#e1ed5e" style="font-size:6.75px; font-family:Arial;" text-anchor="middle"><textPath startOffset="21.46611528233685" xlink:href="#id45">September</textPath></text><path d="M 79.29508885075956 103.50808413554451 l -27.942459414804222 4.734359779407557 a49.340698662327526,49.340698662327526 0 0,0 -0.13467248980537247,-0.8386057225729981 l 28.019813658970886 -4.252674827141345" fill="#a9ff21" stroke="none" /><path d="M 79.1416061653843 102.43462659150553 l -2.6293438476686983 0.30690140863684706 a23.64719427770168,23.64719427770168 0 0,0 -0.043710936086565476,-0.40470898097671987 l 2.6342370852563155 -0.26159610577534514" fill="#ff0000" stroke="none" /><line stroke="#e1ed5e" stroke-width="0.3" x1="15.007084014347285" x2="10.007500721073583" y1="101.09737516637583" y2="101.16192664675087" /><path d="M 14.007167355692545 101.11028546245083 a86.0,86.0 0 0,1 10.666146001902534,-42.60595125391555" fill="none" id="id46" stroke="none" /><text fill="#e1ed5e" style="font-size:6.75px; font-family:Arial;" text-anchor="middle"><textPath startOffset="22.20632615414155" xlink:href="#id46">October</textPath></text><path d="M 79.08570108090925 98.10471618934814 l -4.9332929169348425 -0.4470620906223787 a25.95350820299625,25.95350820299625 0 0,0 0.04414923388766105,-0.4445767602229067 l 4.924866557364953 0.5319143815497157" fill="#ff2203" stroke="none" /><line stroke="#e1ed5e" stroke-width="0.3" x1="26.266209847984243" x2="21.928928074336255" y1="57.711370442889674" y2="55.22380399835377" /><path d="M 25.398753493254645 57.213857153982495 a86.0,86.0 0 0,1 29.58750427330803,-30.492523968695096" fill="none" id="id47" stroke="none" /><text fill="#e1ed5e" style="font-size:6.75px; font-family:Arial;" text-anchor="middle"><textPath startOffset="21.46611528233685" xlink:href="#id47">November</textPath></text><line stroke="#e1ed5e" stroke-width="0.3" x1="56.762969772571076" x2="54.21961505331055" y1="26.818313649435495" y2="22.513508569990535" /><path d="M 56.25429882871897 25.957352633546506 a86.0,86.0 0 0,1 42.265352541879196,-11.944610805530505" fill="none" id="id48" stroke="none" /><text fill="#e1ed5e" style="font-size:6.75px; font-family:Arial;" text-anchor="middle"><textPath startOffset="22.20632615414155" xlink:href="#id48">December</textPath></text></svg>