<?xml version="1.0" encoding="utf-8" ?>
<svg baseProfile="full" height="200mm" version="1.1" viewBox="0,0,200,200" width="200mm" xmlns="http://www.w3.org/2000/svg" xmlns:ev="http://www.w3.org/2001/xml-events" xmlns:xlink="http://www.w3.org/1999/xlink"><defs /><rect fill="#1a1a1a" height="200" width="200" x="0" y="0" /><text alignment-baseline="middle" fill="#e1ed5e" style="dominant-baseline: central; font-size:9.0px; font-family:Arial;" text-anchor="middle" x="100.0" y="100.0">2021</text><line stroke="#e1ed5e" stroke-width="0.3" x1="100.0" x2="100.0" y1="15.0" y2="10.0" /><path d="M 100.0 14.0 a86.0,86.0 0 0,1 42.46469731375804,11.215312516191453" fill="none" id="id73" stroke="none" /><text fill="#e1ed5e" style="font-size:6.75px; font-family:Arial;" text-anchor="middle"><textPath startOffset="22.20632615414155" xlink:href="#id73">January</textPath></text><path d="M 103.2404852339499 79.25152402106235 l 3.7538106045503943 -24.035242729083002 a45.326610678447835,45.326610678447835 0 0,0 0.7698418197007679,0.12703049650987475 l -4.166981630390038 23.967065969633502" fill="#faff18" stroke="none" /><path d="M 104.66035177308747 79.52364482259891 l 5.9842458447861215 -26.293196169083966 a47.96559591621835,47.96559591621835 0 0,0 0.8034838325739395,0.1901586636487826 l -6.435953364322585 26.186291593294314" fill="#d7ff1c" stroke="none" /><path d="M 105.71112130821622 79.79150937346287 l 2.2736914817738816 -8.045333047113287 a29.360445968563177,29.360445968563177 0 0,0 0.4851600934806757,0.1416315352527412 l -2.4118417929779845 8.005003182941842" fill="#ff1c02" stroke="none" /><path d="M 106.74666289553966 80.11325718540242 l 6.717095830074699 -19.79958970856754 a41.90796807482785,41.90796807482785 0 0,0 0.6811401750990738,0.23763643255413652 l -7.056918009237046 19.681032422841195" fill="#ffd614" stroke="none" /><path d="M 107.4271985657038 80.35727306442388 l 17.109005832844158 -45.24822202352024 a69.3747834814594,69.3747834814594 0 0,0 1.1133557122740394,0.43196471934354236 l -17.885344710117863 44.94701460028615" fill="#39ff8a" stroke="none" /><path d="M 108.09893153111575 80.62456947434976 l 12.682030709964039 -30.339780500801375 a53.88367655486957,53.88367655486957 0 0,0 0.852686709959826,0.3650759493012925 l -13.20240117771418 30.116985023537293" fill="#8eff24" stroke="none" /><path d="M 109.41281617654863 81.2277094730956 l 9.119617939097411 -18.18755558762838 a41.34587451077441,41.34587451077441 0 0,0 0.6334572145387171,0.3244813888984277 l -9.431335641224884 18.027881673417454" fill="#ffce13" stroke="none" /><path d="M 110.05341064243156 81.56283822128135 l 3.1476269683764806 -5.772499472972761 a27.574899672049888,27.574899672049888 0 0,0 0.4147736453645714,0.2308210845794864 l -3.2465247028130872 5.717462990833095" fill="#ff0000" stroke="none" /><path d="M 110.36928655335952 81.73862282372117 l 10.032664763355013 -17.668551677495135 a41.318269626968274,41.318269626968274 0 0,0 0.6154518927711551,0.3565094609639829 l -10.335313388591498 17.493238059141103" fill="#ffce13" stroke="none" /><line stroke="#e1ed5e" stroke-width="0.3" x1="143.23703022742887" x2="145.7803849466894" y1="26.81831364943548" y2="22.513508569990506" /><path d="M 143.74570117128098 25.957352633546492 a86.0,86.0 0 0,1 28.547481713284135,27.462654790039103" fill="none" id="id74" stroke="none" /><text fill="#e1ed5e" style="font-size:6.75px; font-family:Arial;" text-anchor="middle"><textPath startOffset="19.985693538727396" xlink:href="#id74">February</textPath></text><path d="M 110.99172775467656 82.1063720568725 l 19.308761969543763 -31.433074984815487 a57.88992398741874,57.88992398741874 0 0,0 0.8445887609700288,0.5288814046367102 l -19.846969882886054 31.096049238855834" fill="#5fff29" stroke="none" /><path d="M 111.2981086023043 82.29822771554956 l 11.336819859310753 -17.762424724650334 a42.07195331765264,42.07195331765264 0 0,0 0.6071042449958668,0.39487748864854527 l -11.6408911300909 17.564648311842262" fill="#ffd814" stroke="none" /><path d="M 111.60114157652 82.49532879139004 l 11.35802328038102 -17.137836116508016 a41.55991535960116,41.55991535960116 0 0,0 0.5929121686951412,0.4003369430058499 l -11.651340143482704 16.939787261203495" fill="#ffd113" stroke="none" /><path d="M 112.19680574252982 82.90503203632743 l 24.252115406311507 -33.99161589304714 a62.75637738958574,62.75637738958574 0 0,0 0.8739712617263593,0.6349772898987002 l -24.833631984391655 33.56911936833177" fill="#30ff36" stroke="none" /><path d="M 112.48926042617603 83.11751280151076 l 22.77836565939451 -30.790891816240105 a59.300560843837324,59.300560843837324 0 0,0 0.8153935727591933,0.6141375341206546 l -23.305005385912086 30.3942376926136" fill="#50ff2b" stroke="none" /><path d="M 113.06298171725822 83.55741782278167 l 16.151448635928553 -20.330084449748174 a46.96500773681631,46.96500773681631 0 0,0 0.6286525743434022,0.508326661929587 l -16.499004608836447 20.049051690554457" fill="#e4ff1a" stroke="none" /><path d="M 113.89432698308785 84.25364557470407 l 41.68298094926353 -47.23906327588782 a84.0,84.0 0 0,0 1.0759560496160399,0.9660039649228103 l -42.48994798647556 46.51456030219571" fill="#4dd2ff" stroke="none" /><path d="M 114.16331599549186 84.49514656593476 l 7.902964129953356 -8.651526278775679 a32.71775358128321,32.71775358128321 0 0,0 0.41254300991746246,0.3834137671568479 l -8.050715023665665 8.51420792554419" fill="#ff5107" stroke="none" /><path d="M 114.68862486808459 84.99185889309783 l 14.374519705471931 -14.687203330545723 a41.5509308411029,41.5509308411029 0 0,0 0.506850521486383,0.5046739442705551 l -14.625206027125637 14.437593535625048" fill="#ffd113" stroke="none" /><path d="M 115.68641384162765 86.03803664274999 l 9.097434730433292 -8.097328786150628 a33.179082565838755,33.179082565838755 0 0,0 0.37604245760438043,0.42988153455346234 l -9.235469051615521 7.939531695394218" fill="#ff5808" stroke="none" /><path d="M 116.15771136456269 86.58626213691792 l 31.96461779405555 -26.5362460257486 a62.54406267878854,62.54406267878854 0 0,0 0.6805434587509895,0.8342658120643733 l -32.41665974488295 25.982096044076126" fill="#30ff33" stroke="none" /><path d="M 116.38621287248628 86.86637796730983 l 6.484548485651648 -5.197394268336511 a29.310371606811835,29.310371606811835 0 0,0 0.3121497621970478,0.39639849868559357 l -6.57305232844266 5.085003375697879" fill="#ff1c02" stroke="none" /><path d="M 116.82858285166822 87.43820079747576 l 16.169709921912077 -12.069979450586253 a41.17780768310463,41.17780768310463 0 0,0 0.4191065255525289,0.5716608298522627 l -16.375079059978233 11.789856177062497" fill="#ffcc13" stroke="none" /><path d="M 117.45458315368197 88.32363383020206 l 16.907779036793674 -11.310577709785711 a41.34212771777183,41.34212771777183 0 0,0 0.3905912971746821,0.5948973425256456 l -17.09996696932628 11.01786230328239" fill="#ffce13" stroke="none" /><path d="M 117.65298651832404 88.62581576622439 l 18.232758772935576 -11.74774348567545 a42.689697311795044,42.689697311795044 0 0,0 0.39268911644057203,0.6211398777136906 l -18.432275485622103 11.432155960247552" fill="#ffe115" stroke="none" /><line stroke="#e1ed5e" stroke-width="0.3" x1="172.23445277983987" x2="176.4835382374775" y1="55.19839476539836" y2="52.563006222186495" /><path d="M 173.08426987136738 54.67131705675599 a86.0,86.0 0 0,1 12.851231095245387,41.99856678651699" fill="none" id="id75" stroke="none" /><text fill="#e1ed5e" style="font-size:6.75px; font-family:Arial;" text-anchor="middle"><textPath startOffset="22.20632615414155" xlink:href="#id75">March</textPath></text><path d="M 118.03404312379186 89.2402003453031 l 24.96314415910614 -14.893966264777529 a50.068691016360646,50.068691016360646 0 0,0 0.43521691223671766,0.7439267806474329 l -25.215820745813183 14.4620600717762" fill="#bcff1f" stroke="none" /><path d="M 118.3937258080291 89.86733742301442 l 25.565010291901093 -14.08315127498109 a50.18740997517612,50.18740997517612 0 0,0 0.4103224673304841,0.7602652147806561 l -25.80364085845004 13.641005076867975" fill="#bbff1f" stroke="none" /><path d="M 118.73160827565052 90.50648371742162 l 14.500451257189582 -7.349089735866947 a37.25645123044866,37.25645123044866 0 0,0 0.28499408776482166,0.574530690358919 l -14.62480535790781 7.098399457009078" fill="#ff940d" stroke="none" /><line stroke="#e1ed5e" stroke-width="0.3" x1="184.98032266829074" x2="189.97916517819016" y1="98.17113171792111" y2="98.06355123074" /><path d="M 185.9800911702706 98.14961562048488 a86.0,86.0 0 0,1 -9.607161424134198,41.387399972396054" fill="none" id="id76" stroke="none" /><text fill="#e1ed5e" style="font-size:6.75px; font-family:Arial;" text-anchor="middle"><textPath startOffset="21.466115282336823" xlink:href="#id76">April</textPath></text><line stroke="#e1ed5e" stroke-width="0.3" x1="174.80103733775053" x2="179.2010983576182" y1="140.37084112569926" y2="142.7455964860345" /><path d="M 175.68104954172406 140.8457921977663 a86.0,86.0 0 0,1 -30.038265399797805,32.042727171017184" fill="none" id="id77" stroke="none" /><text fill="#e1ed5e" style="font-size:6.75px; font-family:Arial;" text-anchor="middle"><textPath startOffset="22.206326154141568" xlink:href="#id77">May</textPath></text><line stroke="#e1ed5e" stroke-width="0.3" x1="143.8653032363475" x2="146.44561519142675" y1="172.8068346515853" y2="177.08958963109032" /><path d="M 144.38136562736335 173.6633856474863 a86.0,86.0 0 0,1 -40.68145358897372,12.25698825130547" fill="none" id="id78" stroke="none" /><text fill="#e1ed5e" style="font-size:6.75px; font-family:Arial;" text-anchor="middle"><textPath startOffset="21.466115282336833" xlink:href="#id78">June</textPath></text><line stroke="#e1ed5e" stroke-width="0.3" x1="102.19456741930631" x2="102.32365962044197" y1="184.97166512339345" y2="189.96999836594603" /><path d="M 102.22038585953345 185.97133177190398 a86.0,86.0 0 0,1 -42.740103519485714,-10.115201625700543" fill="none" id="id79" stroke="none" /><text fill="#e1ed5e" style="font-size:6.75px; font-family:Arial;" text-anchor="middle"><textPath startOffset="22.20632615414155" xlink:href="#id79">July</textPath></text><line stroke="#e1ed5e" stroke-width="0.3" x1="58.666819895761336" x2="56.23545636021788" y1="174.27360380694188" y2="178.64263932499728" /><path d="M 58.180547188652646 175.14741091055294 a86.0,86.0 0 0,1 -31.652253787137756,-30.449443065178592" fill="none" id="id80" stroke="none" /><text fill="#e1ed5e" style="font-size:6.75px; font-family:Arial;" text-anchor="middle"><textPath startOffset="22.20632615414155" xlink:href="#id80">August</textPath></text><line stroke="#e1ed5e" stroke-width="0.3" x1="26.63291911575756" x2="22.317208475507996" y1="142.92168965132927" y2="145.44649492493687" /><path d="M 25.769776987707644 143.4266507060508 a86.0,86.0 0 0,1 -11.730757126820373,-40.83630448921669" fill="none" id="id81" stroke="none" /><text fill="#e1ed5e" style="font-size:6.75px; font-family:Arial;" text-anchor="middle"><textPath startOffset="21.46611528233685" xlink:href="#id81">September</textPath></text><line stroke="#e1ed5e" stroke-width="0.3" x1="15.007084014347285" x2="10.007500721073583" y1="101.09737516637583" y2="101.16192664675087" /><path d="M 14.007167355692545 101.11028546245083 a86.0,86.0 0 0,1 10.666146001902534,-42.60595125391555" fill="none" id="id82" stroke="none" /><text fill="#e1ed5e" style="font-size:6.75px; font-family:Arial;" text-anchor="middle"><textPath startOffset="22.20632615414155" xlink:href="#id82">October</textPath></text><line stroke="#e1ed5e" stroke-width="0.3" x1="26.266209847984243" x2="21.928928074336255" y1="57.711370442889674" y2="55.22380399835377" /><path d="M 25.398753493254645 57.213857153982495 a86.0,86.0 0 0,1 29.58750427330803,-30.492523968695096" fill="none" id="id83" stroke="none" /><text fill="#e1ed5e" style="font-size:6.75px; font-family:Arial;" text-anchor="middle"><textPath startOffset="21.46611528233685" xlink:href="#id83">November</textPath></text><line stroke="#e1ed5e" stroke-width="0.3" x1="56.762969772571076" x2="54.21961505331055" y1="26.818313649435495" y2="22.513508569990535" /><path d="M 56.25429882871897 25.957352633546506 a86.0,86.0 0 0,1 42.265352541879196,-11.944610805530505" fill="none" id="id84" stroke="none" /><text fill="#e1ed5e" style="font-size:6.75px; font-family:Arial;" text-anchor="middle"><textPath startOffset="22.20632615414155" xlink:href="#id84">December</textPath></text></svg>